<?xml version="1.0" encoding="utf-8" standalone="no"?>
<!DOCTYPE svg PUBLIC "-//W3C//DTD SVG 1.1//EN" "http://www.w3.org/Graphics/SVG/1.1/DTD/svg11.dtd">
<svg width="3000px" height="3000px" version="1.1" xmlns="http://www.w3.org/2000/svg" xmlns:xlink="http://www.w3.org/1999/xlink">
<g id="ideograms">
<path d="M1500.000,250.000 A1250.000,1250.000 40.000 0,1 1759.757,2722.713 L1780.537,2820.530 A1350.000,1350.000 0.000 0,0 1500.000,150.000 Z" style="stroke-width:2.0;stroke:rgb(115,115,115);stroke-linecap:round;fill:rgb(189,189,189);" />
<text x="2757.1" y="1367.9" font-size="93.6px" font-family="CMUBright-Bold" style="text-anchor:middle;fill:rgb(255,255,255);" transform="rotate(444.0,2757.1,1367.9)" >G1</text>
<line x1='1500.0' y1='150.0' x2='1500.0' y2='135.0' style="stroke-width:2.0;stroke:rgb(115,115,115);stroke-linecap:round;fill:none;" />
<line x1='1500.0' y1='150.0' x2='1500.0' y2='250.0' style="stroke-width:2.0;stroke:rgb(255,255,255);stroke-linecap:round;fill:none;" />
<text x="1514.5" y="130.1" font-size="33.8px" font-family="CMUBright-Roman" style="text-anchor:start;fill:rgb(115,115,115);" transform="rotate(270.0,1514.5,130.1)" >0%</text>
<line x1='1697.2' y1='164.5' x2='1699.4' y2='149.6' style="stroke-width:2.0;stroke:rgb(115,115,115);stroke-linecap:round;fill:none;" />
<line x1='1697.2' y1='164.5' x2='1682.6' y2='263.4' style="stroke-width:1.0;stroke:rgb(255,255,255);stroke-linecap:round;fill:none;" />
<line x1='1890.2' y1='207.6' x2='1894.5' y2='193.3' style="stroke-width:2.0;stroke:rgb(115,115,115);stroke-linecap:round;fill:none;" />
<line x1='1890.2' y1='207.6' x2='1861.3' y2='303.4' style="stroke-width:2.0;stroke:rgb(255,255,255);stroke-linecap:round;fill:none;" />
<text x="1909.8" y="192.7" font-size="33.8px" font-family="CMUBright-Roman" style="text-anchor:start;fill:rgb(115,115,115);" transform="rotate(286.8,1909.8,192.7)" >10%</text>
<line x1='2074.8' y1='278.5' x2='2081.2' y2='264.9' style="stroke-width:2.0;stroke:rgb(115,115,115);stroke-linecap:round;fill:none;" />
<line x1='2074.8' y1='278.5' x2='2032.2' y2='369.0' style="stroke-width:1.0;stroke:rgb(255,255,255);stroke-linecap:round;fill:none;" />
<line x1='2247.1' y1='375.6' x2='2255.4' y2='363.1' style="stroke-width:2.0;stroke:rgb(115,115,115);stroke-linecap:round;fill:none;" />
<line x1='2247.1' y1='375.6' x2='2191.8' y2='458.9' style="stroke-width:2.0;stroke:rgb(255,255,255);stroke-linecap:round;fill:none;" />
<text x="2270.2" y="367.0" font-size="33.8px" font-family="CMUBright-Roman" style="text-anchor:start;fill:rgb(115,115,115);" transform="rotate(303.6,2270.2,367.0)" >20%</text>
<line x1='2403.4' y1='496.8' x2='2413.4' y2='485.6' style="stroke-width:2.0;stroke:rgb(115,115,115);stroke-linecap:round;fill:none;" />
<line x1='2403.4' y1='496.8' x2='2336.4' y2='571.1' style="stroke-width:1.0;stroke:rgb(255,255,255);stroke-linecap:round;fill:none;" />
<line x1='2540.2' y1='639.5' x2='2551.8' y2='630.0' style="stroke-width:2.0;stroke:rgb(115,115,115);stroke-linecap:round;fill:none;" />
<line x1='2540.2' y1='639.5' x2='2463.2' y2='703.3' style="stroke-width:2.0;stroke:rgb(255,255,255);stroke-linecap:round;fill:none;" />
<text x="2564.8" y="638.0" font-size="33.8px" font-family="CMUBright-Roman" style="text-anchor:start;fill:rgb(115,115,115);" transform="rotate(320.4,2564.8,638.0)" >30%</text>
<line x1='2654.8' y1='800.7' x2='2667.6' y2='792.9' style="stroke-width:2.0;stroke:rgb(115,115,115);stroke-linecap:round;fill:none;" />
<line x1='2654.8' y1='800.7' x2='2569.2' y2='852.5' style="stroke-width:1.0;stroke:rgb(255,255,255);stroke-linecap:round;fill:none;" />
<line x1='2744.5' y1='976.9' x2='2758.4' y2='971.1' style="stroke-width:2.0;stroke:rgb(115,115,115);stroke-linecap:round;fill:none;" />
<line x1='2744.5' y1='976.9' x2='2652.3' y2='1015.7' style="stroke-width:2.0;stroke:rgb(255,255,255);stroke-linecap:round;fill:none;" />
<text x="2768.5" y="982.6" font-size="33.8px" font-family="CMUBright-Roman" style="text-anchor:start;fill:rgb(115,115,115);" transform="rotate(337.2,2768.5,982.6)" >40%</text>
<line x1='2807.6' y1='1164.3' x2='2822.1' y2='1160.6' style="stroke-width:2.0;stroke:rgb(115,115,115);stroke-linecap:round;fill:none;" />
<line x1='2807.6' y1='1164.3' x2='2710.7' y2='1189.2' style="stroke-width:1.0;stroke:rgb(255,255,255);stroke-linecap:round;fill:none;" />
<line x1='2842.6' y1='1359.0' x2='2857.5' y2='1357.4' style="stroke-width:2.0;stroke:rgb(115,115,115);stroke-linecap:round;fill:none;" />
<line x1='2842.6' y1='1359.0' x2='2743.2' y2='1369.4' style="stroke-width:2.0;stroke:rgb(255,255,255);stroke-linecap:round;fill:none;" />
<text x="2863.9" y="1371.3" font-size="33.8px" font-family="CMUBright-Roman" style="text-anchor:start;fill:rgb(115,115,115);" transform="rotate(354.0,2863.9,1371.3)" >50%</text>
<line x1='2848.8' y1='1556.6' x2='2863.8' y2='1557.2' style="stroke-width:2.0;stroke:rgb(115,115,115);stroke-linecap:round;fill:none;" />
<line x1='2848.8' y1='1556.6' x2='2748.9' y2='1552.4' style="stroke-width:1.0;stroke:rgb(255,255,255);stroke-linecap:round;fill:none;" />
<line x1='2826.1' y1='1753.1' x2='2840.8' y2='1755.9' style="stroke-width:2.0;stroke:rgb(115,115,115);stroke-linecap:round;fill:none;" />
<line x1='2826.1' y1='1753.1' x2='2727.8' y2='1734.3' style="stroke-width:2.0;stroke:rgb(255,255,255);stroke-linecap:round;fill:none;" />
<text x="2842.9" y="1771.0" font-size="33.8px" font-family="CMUBright-Roman" style="text-anchor:start;fill:rgb(115,115,115);" transform="rotate(10.8,2842.9,1771.0)" >60%</text>
<line x1='2774.9' y1='1944.1' x2='2789.0' y2='1949.0' style="stroke-width:2.0;stroke:rgb(115,115,115);stroke-linecap:round;fill:none;" />
<line x1='2774.9' y1='1944.1' x2='2680.4' y2='1911.2' style="stroke-width:1.0;stroke:rgb(255,255,255);stroke-linecap:round;fill:none;" />
<line x1='2696.3' y1='2125.5' x2='2709.6' y2='2132.5' style="stroke-width:2.0;stroke:rgb(115,115,115);stroke-linecap:round;fill:none;" />
<line x1='2696.3' y1='2125.5' x2='2607.7' y2='2079.2' style="stroke-width:2.0;stroke:rgb(255,255,255);stroke-linecap:round;fill:none;" />
<text x="2707.3" y="2147.6" font-size="33.8px" font-family="CMUBright-Roman" style="text-anchor:start;fill:rgb(115,115,115);" transform="rotate(27.6,2707.3,2147.6)" >70%</text>
<line x1='2592.1' y1='2293.6' x2='2604.2' y2='2302.4' style="stroke-width:2.0;stroke:rgb(115,115,115);stroke-linecap:round;fill:none;" />
<line x1='2592.1' y1='2293.6' x2='2511.2' y2='2234.8' style="stroke-width:1.0;stroke:rgb(255,255,255);stroke-linecap:round;fill:none;" />
<line x1='2464.5' y1='2444.6' x2='2475.2' y2='2455.1' style="stroke-width:2.0;stroke:rgb(115,115,115);stroke-linecap:round;fill:none;" />
<line x1='2464.5' y1='2444.6' x2='2393.0' y2='2374.7' style="stroke-width:2.0;stroke:rgb(255,255,255);stroke-linecap:round;fill:none;" />
<text x="2468.5" y="2468.9" font-size="33.8px" font-family="CMUBright-Roman" style="text-anchor:start;fill:rgb(115,115,115);" transform="rotate(44.4,2468.5,2468.9)" >80%</text>
<line x1='2316.1' y1='2575.4' x2='2325.2' y2='2587.3' style="stroke-width:2.0;stroke:rgb(115,115,115);stroke-linecap:round;fill:none;" />
<line x1='2316.1' y1='2575.4' x2='2255.7' y2='2495.7' style="stroke-width:1.0;stroke:rgb(255,255,255);stroke-linecap:round;fill:none;" />
<line x1='2150.3' y1='2683.1' x2='2157.5' y2='2696.2' style="stroke-width:2.0;stroke:rgb(115,115,115);stroke-linecap:round;fill:none;" />
<line x1='2150.3' y1='2683.1' x2='2102.1' y2='2595.4' style="stroke-width:2.0;stroke:rgb(255,255,255);stroke-linecap:round;fill:none;" />
<text x="2147.1" y="2707.5" font-size="33.8px" font-family="CMUBright-Roman" style="text-anchor:start;fill:rgb(115,115,115);" transform="rotate(61.2,2147.1,2707.5)" >90%</text>
<line x1='1970.4' y1='2765.4' x2='1975.7' y2='2779.4' style="stroke-width:2.0;stroke:rgb(115,115,115);stroke-linecap:round;fill:none;" />
<line x1='1970.4' y1='2765.4' x2='1935.6' y2='2671.6' style="stroke-width:1.0;stroke:rgb(255,255,255);stroke-linecap:round;fill:none;" />
<line x1='1780.5' y1='2820.5' x2='1783.7' y2='2835.2' style="stroke-width:2.0;stroke:rgb(115,115,115);stroke-linecap:round;fill:none;" />
<line x1='1780.5' y1='2820.5' x2='1759.8' y2='2722.7' style="stroke-width:2.0;stroke:rgb(255,255,255);stroke-linecap:round;fill:none;" />
<text x="1770.5" y="2843.0" font-size="33.8px" font-family="CMUBright-Roman" style="text-anchor:start;fill:rgb(115,115,115);" transform="rotate(78.0,1770.5,2843.0)" >100%</text>
<path d="M1500.000,250.000 A1250.000,1250.000 40.000 0,1 1759.757,2722.713 L1780.537,2820.530 A1350.000,1350.000 0.000 0,0 1500.000,150.000 Z" style="stroke-width:2.0;stroke:rgb(115,115,115);stroke-linecap:round;fill:none;" />
<path d="M1721.793,2730.166 A1250.000,1250.000 40.000 0,1 422.423,866.496 L336.217,815.816 A1350.000,1350.000 0.000 0,0 1739.537,2828.579 Z" style="stroke-width:2.0;stroke:rgb(115,115,115);stroke-linecap:round;fill:rgb(150,150,150);" />
<text x="404.1" y="2264.1" font-size="93.6px" font-family="CMUBright-Bold" style="text-anchor:middle;fill:rgb(255,255,255);" transform="rotate(55.1,404.1,2264.1)" >S</text>
<line x1='1739.5' y1='2828.6' x2='1742.2' y2='2843.3' style="stroke-width:2.0;stroke:rgb(115,115,115);stroke-linecap:round;fill:none;" />
<line x1='1739.5' y1='2828.6' x2='1721.8' y2='2730.2' style="stroke-width:2.0;stroke:rgb(255,255,255);stroke-linecap:round;fill:none;" />
<text x="1728.8" y="2850.8" font-size="33.8px" font-family="CMUBright-Roman" style="text-anchor:start;fill:rgb(115,115,115);" transform="rotate(79.8,1728.8,2850.8)" >0%</text>
<line x1='1586.8' y1='2847.2' x2='1587.8' y2='2862.2' style="stroke-width:2.0;stroke:rgb(115,115,115);stroke-linecap:round;fill:none;" />
<line x1='1586.8' y1='2847.2' x2='1580.4' y2='2747.4' style="stroke-width:1.0;stroke:rgb(255,255,255);stroke-linecap:round;fill:none;" />
<line x1='1433.0' y1='2848.3' x2='1432.2' y2='2863.3' style="stroke-width:2.0;stroke:rgb(115,115,115);stroke-linecap:round;fill:none;" />
<line x1='1433.0' y1='2848.3' x2='1437.9' y2='2748.5' style="stroke-width:2.0;stroke:rgb(255,255,255);stroke-linecap:round;fill:none;" />
<text x="1446.4" y="2869.0" font-size="33.8px" font-family="CMUBright-Roman" style="text-anchor:end;fill:rgb(115,115,115);" transform="rotate(-87.2,1446.4,2869.0)" >10%</text>
<line x1='1280.0' y1='2831.9' x2='1277.5' y2='2846.7' style="stroke-width:2.0;stroke:rgb(115,115,115);stroke-linecap:round;fill:none;" />
<line x1='1280.0' y1='2831.9' x2='1296.3' y2='2733.3' style="stroke-width:1.0;stroke:rgb(255,255,255);stroke-linecap:round;fill:none;" />
<line x1='1129.8' y1='2798.3' x2='1125.7' y2='2812.7' style="stroke-width:2.0;stroke:rgb(115,115,115);stroke-linecap:round;fill:none;" />
<line x1='1129.8' y1='2798.3' x2='1157.3' y2='2702.1' style="stroke-width:2.0;stroke:rgb(255,255,255);stroke-linecap:round;fill:none;" />
<text x="1138.3" y="2821.4" font-size="33.8px" font-family="CMUBright-Roman" style="text-anchor:end;fill:rgb(115,115,115);" transform="rotate(-74.1,1138.3,2821.4)" >20%</text>
<line x1='984.5' y1='2747.7' x2='978.8' y2='2761.6' style="stroke-width:2.0;stroke:rgb(115,115,115);stroke-linecap:round;fill:none;" />
<line x1='984.5' y1='2747.7' x2='1022.7' y2='2655.3' style="stroke-width:1.0;stroke:rgb(255,255,255);stroke-linecap:round;fill:none;" />
<line x1='845.9' y1='2681.0' x2='838.6' y2='2694.1' style="stroke-width:2.0;stroke:rgb(115,115,115);stroke-linecap:round;fill:none;" />
<line x1='845.9' y1='2681.0' x2='894.3' y2='2593.5' style="stroke-width:2.0;stroke:rgb(255,255,255);stroke-linecap:round;fill:none;" />
<text x="848.9" y="2705.4" font-size="33.8px" font-family="CMUBright-Roman" style="text-anchor:end;fill:rgb(115,115,115);" transform="rotate(-61.0,848.9,2705.4)" >30%</text>
<line x1='715.8' y1='2598.9' x2='707.1' y2='2611.1' style="stroke-width:2.0;stroke:rgb(115,115,115);stroke-linecap:round;fill:none;" />
<line x1='715.8' y1='2598.9' x2='773.9' y2='2517.5' style="stroke-width:1.0;stroke:rgb(255,255,255);stroke-linecap:round;fill:none;" />
<line x1='595.8' y1='2502.5' x2='585.8' y2='2513.6' style="stroke-width:2.0;stroke:rgb(115,115,115);stroke-linecap:round;fill:none;" />
<line x1='595.8' y1='2502.5' x2='662.8' y2='2428.2' style="stroke-width:2.0;stroke:rgb(255,255,255);stroke-linecap:round;fill:none;" />
<text x="593.3" y="2527.0" font-size="33.8px" font-family="CMUBright-Roman" style="text-anchor:end;fill:rgb(115,115,115);" transform="rotate(-48.0,593.3,2527.0)" >40%</text>
<line x1='487.6' y1='2393.1' x2='476.4' y2='2403.0' style="stroke-width:2.0;stroke:rgb(115,115,115);stroke-linecap:round;fill:none;" />
<line x1='487.6' y1='2393.1' x2='562.6' y2='2326.9' style="stroke-width:1.0;stroke:rgb(255,255,255);stroke-linecap:round;fill:none;" />
<line x1='392.6' y1='2272.1' x2='380.3' y2='2280.7' style="stroke-width:2.0;stroke:rgb(115,115,115);stroke-linecap:round;fill:none;" />
<line x1='392.6' y1='2272.1' x2='474.6' y2='2214.9' style="stroke-width:2.0;stroke:rgb(255,255,255);stroke-linecap:round;fill:none;" />
<text x="384.5" y="2295.4" font-size="33.8px" font-family="CMUBright-Roman" style="text-anchor:end;fill:rgb(115,115,115);" transform="rotate(-34.9,384.5,2295.4)" >50%</text>
<line x1='311.9' y1='2141.1' x2='298.7' y2='2148.2' style="stroke-width:2.0;stroke:rgb(115,115,115);stroke-linecap:round;fill:none;" />
<line x1='311.9' y1='2141.1' x2='399.9' y2='2093.6' style="stroke-width:1.0;stroke:rgb(255,255,255);stroke-linecap:round;fill:none;" />
<line x1='246.7' y1='2001.7' x2='232.8' y2='2007.3' style="stroke-width:2.0;stroke:rgb(115,115,115);stroke-linecap:round;fill:none;" />
<line x1='246.7' y1='2001.7' x2='339.5' y2='1964.6' style="stroke-width:2.0;stroke:rgb(255,255,255);stroke-linecap:round;fill:none;" />
<text x="233.6" y="2022.6" font-size="33.8px" font-family="CMUBright-Roman" style="text-anchor:end;fill:rgb(115,115,115);" transform="rotate(-21.8,233.6,2022.6)" >60%</text>
<line x1='197.7' y1='1855.9' x2='183.3' y2='1859.8' style="stroke-width:2.0;stroke:rgb(115,115,115);stroke-linecap:round;fill:none;" />
<line x1='197.7' y1='1855.9' x2='294.2' y2='1829.5' style="stroke-width:1.0;stroke:rgb(255,255,255);stroke-linecap:round;fill:none;" />
<line x1='165.7' y1='1705.4' x2='150.9' y2='1707.7' style="stroke-width:2.0;stroke:rgb(115,115,115);stroke-linecap:round;fill:none;" />
<line x1='165.7' y1='1705.4' x2='264.5' y2='1690.2' style="stroke-width:2.0;stroke:rgb(255,255,255);stroke-linecap:round;fill:none;" />
<text x="148.2" y="1722.7" font-size="33.8px" font-family="CMUBright-Roman" style="text-anchor:end;fill:rgb(115,115,115);" transform="rotate(-8.8,148.2,1722.7)" >70%</text>
<line x1='151.0' y1='1552.2' x2='136.0' y2='1552.8' style="stroke-width:2.0;stroke:rgb(115,115,115);stroke-linecap:round;fill:none;" />
<line x1='151.0' y1='1552.2' x2='250.9' y2='1548.3' style="stroke-width:1.0;stroke:rgb(255,255,255);stroke-linecap:round;fill:none;" />
<line x1='153.8' y1='1398.4' x2='138.9' y2='1397.3' style="stroke-width:2.0;stroke:rgb(115,115,115);stroke-linecap:round;fill:none;" />
<line x1='153.8' y1='1398.4' x2='253.5' y2='1405.9' style="stroke-width:2.0;stroke:rgb(255,255,255);stroke-linecap:round;fill:none;" />
<text x="132.9" y="1411.3" font-size="33.8px" font-family="CMUBright-Roman" style="text-anchor:end;fill:rgb(115,115,115);" transform="rotate(4.3,132.9,1411.3)" >80%</text>
<line x1='174.1' y1='1245.9' x2='159.4' y2='1243.0' style="stroke-width:2.0;stroke:rgb(115,115,115);stroke-linecap:round;fill:none;" />
<line x1='174.1' y1='1245.9' x2='272.3' y2='1264.7' style="stroke-width:1.0;stroke:rgb(255,255,255);stroke-linecap:round;fill:none;" />
<line x1='211.7' y1='1096.7' x2='197.3' y2='1092.2' style="stroke-width:2.0;stroke:rgb(115,115,115);stroke-linecap:round;fill:none;" />
<line x1='211.7' y1='1096.7' x2='307.1' y2='1126.5' style="stroke-width:2.0;stroke:rgb(255,255,255);stroke-linecap:round;fill:none;" />
<text x="188.3" y="1104.5" font-size="33.8px" font-family="CMUBright-Roman" style="text-anchor:end;fill:rgb(115,115,115);" transform="rotate(17.4,188.3,1104.5)" >90%</text>
<line x1='265.9' y1='952.7' x2='252.2' y2='946.6' style="stroke-width:2.0;stroke:rgb(115,115,115);stroke-linecap:round;fill:none;" />
<line x1='265.9' y1='952.7' x2='357.3' y2='993.2' style="stroke-width:1.0;stroke:rgb(255,255,255);stroke-linecap:round;fill:none;" />
<line x1='336.2' y1='815.8' x2='323.3' y2='808.2' style="stroke-width:2.0;stroke:rgb(115,115,115);stroke-linecap:round;fill:none;" />
<line x1='336.2' y1='815.8' x2='422.4' y2='866.5' style="stroke-width:2.0;stroke:rgb(255,255,255);stroke-linecap:round;fill:none;" />
<text x="311.7" y="818.2" font-size="33.8px" font-family="CMUBright-Roman" style="text-anchor:end;fill:rgb(115,115,115);" transform="rotate(30.5,311.7,818.2)" >100%</text>
<path d="M1721.793,2730.166 A1250.000,1250.000 40.000 0,1 422.423,866.496 L336.217,815.816 A1350.000,1350.000 0.000 0,0 1739.537,2828.579 Z" style="stroke-width:2.0;stroke:rgb(115,115,115);stroke-linecap:round;fill:none;" />
<path d="M442.544,833.452 A1250.000,1250.000 40.000 0,1 1461.317,250.599 L1458.222,150.647 A1350.000,1350.000 0.000 0,0 357.947,780.128 Z" style="stroke-width:2.0;stroke:rgb(115,115,115);stroke-linecap:round;fill:rgb(99,99,99);" />
<text x="872.3" y="402.9" font-size="93.6px" font-family="CMUBright-Bold" style="text-anchor:middle;fill:rgb(255,255,255);" transform="rotate(-29.8,872.3,402.9)" >G2</text>
<line x1='357.9' y1='780.1' x2='345.3' y2='772.1' style="stroke-width:2.0;stroke:rgb(115,115,115);stroke-linecap:round;fill:none;" />
<line x1='357.9' y1='780.1' x2='442.5' y2='833.5' style="stroke-width:2.0;stroke:rgb(255,255,255);stroke-linecap:round;fill:none;" />
<text x="333.4" y="781.8" font-size="33.8px" font-family="CMUBright-Roman" style="text-anchor:end;fill:rgb(115,115,115);" transform="rotate(32.2,333.4,781.8)" >0%</text>
<line x1='394.5' y1='725.2' x2='382.2' y2='716.6' style="stroke-width:2.0;stroke:rgb(115,115,115);stroke-linecap:round;fill:none;" />
<line x1='394.5' y1='725.2' x2='476.4' y2='782.6' style="stroke-width:1.0;stroke:rgb(255,255,255);stroke-linecap:round;fill:none;" />
<line x1='433.6' y1='672.1' x2='421.8' y2='662.9' style="stroke-width:2.0;stroke:rgb(115,115,115);stroke-linecap:round;fill:none;" />
<line x1='433.6' y1='672.1' x2='512.6' y2='733.4' style="stroke-width:2.0;stroke:rgb(255,255,255);stroke-linecap:round;fill:none;" />
<text x="409.0" y="671.4" font-size="33.8px" font-family="CMUBright-Roman" style="text-anchor:end;fill:rgb(115,115,115);" transform="rotate(37.8,409.0,671.4)" >10%</text>
<line x1='475.4' y1='621.0' x2='464.0' y2='611.2' style="stroke-width:2.0;stroke:rgb(115,115,115);stroke-linecap:round;fill:none;" />
<line x1='475.4' y1='621.0' x2='551.3' y2='686.1' style="stroke-width:1.0;stroke:rgb(255,255,255);stroke-linecap:round;fill:none;" />
<line x1='519.5' y1='572.0' x2='508.6' y2='561.7' style="stroke-width:2.0;stroke:rgb(115,115,115);stroke-linecap:round;fill:none;" />
<line x1='519.5' y1='572.0' x2='592.2' y2='640.7' style="stroke-width:2.0;stroke:rgb(255,255,255);stroke-linecap:round;fill:none;" />
<text x="495.1" y="568.8" font-size="33.8px" font-family="CMUBright-Roman" style="text-anchor:end;fill:rgb(115,115,115);" transform="rotate(43.4,495.1,568.8)" >20%</text>
<line x1='566.0' y1='525.2' x2='555.7' y2='514.4' style="stroke-width:2.0;stroke:rgb(115,115,115);stroke-linecap:round;fill:none;" />
<line x1='566.0' y1='525.2' x2='635.2' y2='597.4' style="stroke-width:1.0;stroke:rgb(255,255,255);stroke-linecap:round;fill:none;" />
<line x1='614.8' y1='480.8' x2='604.9' y2='469.4' style="stroke-width:2.0;stroke:rgb(115,115,115);stroke-linecap:round;fill:none;" />
<line x1='614.8' y1='480.8' x2='680.3' y2='556.3' style="stroke-width:2.0;stroke:rgb(255,255,255);stroke-linecap:round;fill:none;" />
<text x="590.8" y="475.2" font-size="33.8px" font-family="CMUBright-Roman" style="text-anchor:end;fill:rgb(115,115,115);" transform="rotate(49.0,590.8,475.2)" >30%</text>
<line x1='665.6' y1='438.7' x2='656.3' y2='426.9' style="stroke-width:2.0;stroke:rgb(115,115,115);stroke-linecap:round;fill:none;" />
<line x1='665.6' y1='438.7' x2='727.4' y2='517.3' style="stroke-width:1.0;stroke:rgb(255,255,255);stroke-linecap:round;fill:none;" />
<line x1='718.5' y1='399.2' x2='709.8' y2='387.0' style="stroke-width:2.0;stroke:rgb(115,115,115);stroke-linecap:round;fill:none;" />
<line x1='718.5' y1='399.2' x2='776.3' y2='480.8' style="stroke-width:2.0;stroke:rgb(255,255,255);stroke-linecap:round;fill:none;" />
<text x="695.1" y="391.4" font-size="33.8px" font-family="CMUBright-Roman" style="text-anchor:end;fill:rgb(115,115,115);" transform="rotate(54.6,695.1,391.4)" >40%</text>
<line x1='773.2' y1='362.4' x2='765.1' y2='349.7' style="stroke-width:2.0;stroke:rgb(115,115,115);stroke-linecap:round;fill:none;" />
<line x1='773.2' y1='362.4' x2='827.0' y2='446.6' style="stroke-width:1.0;stroke:rgb(255,255,255);stroke-linecap:round;fill:none;" />
<line x1='829.6' y1='328.2' x2='822.2' y2='315.2' style="stroke-width:2.0;stroke:rgb(115,115,115);stroke-linecap:round;fill:none;" />
<line x1='829.6' y1='328.2' x2='879.3' y2='415.0' style="stroke-width:2.0;stroke:rgb(255,255,255);stroke-linecap:round;fill:none;" />
<text x="807.1" y="318.1" font-size="33.8px" font-family="CMUBright-Roman" style="text-anchor:end;fill:rgb(115,115,115);" transform="rotate(60.2,807.1,318.1)" >50%</text>
<line x1='887.7' y1='296.9' x2='880.8' y2='283.5' style="stroke-width:2.0;stroke:rgb(115,115,115);stroke-linecap:round;fill:none;" />
<line x1='887.7' y1='296.9' x2='933.0' y2='386.0' style="stroke-width:1.0;stroke:rgb(255,255,255);stroke-linecap:round;fill:none;" />
<line x1='947.2' y1='268.4' x2='941.0' y2='254.7' style="stroke-width:2.0;stroke:rgb(115,115,115);stroke-linecap:round;fill:none;" />
<line x1='947.2' y1='268.4' x2='988.1' y2='359.6' style="stroke-width:2.0;stroke:rgb(255,255,255);stroke-linecap:round;fill:none;" />
<text x="925.8" y="256.2" font-size="33.8px" font-family="CMUBright-Roman" style="text-anchor:end;fill:rgb(115,115,115);" transform="rotate(65.8,925.8,256.2)" >60%</text>
<line x1='1008.0' y1='242.9' x2='1002.5' y2='228.9' style="stroke-width:2.0;stroke:rgb(115,115,115);stroke-linecap:round;fill:none;" />
<line x1='1008.0' y1='242.9' x2='1044.4' y2='336.0' style="stroke-width:1.0;stroke:rgb(255,255,255);stroke-linecap:round;fill:none;" />
<line x1='1070.0' y1='220.3' x2='1065.2' y2='206.1' style="stroke-width:2.0;stroke:rgb(115,115,115);stroke-linecap:round;fill:none;" />
<line x1='1070.0' y1='220.3' x2='1101.8' y2='315.1' style="stroke-width:2.0;stroke:rgb(255,255,255);stroke-linecap:round;fill:none;" />
<text x="1049.9" y="206.1" font-size="33.8px" font-family="CMUBright-Roman" style="text-anchor:end;fill:rgb(115,115,115);" transform="rotate(71.4,1049.9,206.1)" >70%</text>
<line x1='1133.0' y1='200.8' x2='1128.9' y2='186.4' style="stroke-width:2.0;stroke:rgb(115,115,115);stroke-linecap:round;fill:none;" />
<line x1='1133.0' y1='200.8' x2='1160.2' y2='297.1' style="stroke-width:1.0;stroke:rgb(255,255,255);stroke-linecap:round;fill:none;" />
<line x1='1196.9' y1='184.5' x2='1193.5' y2='169.8' style="stroke-width:2.0;stroke:rgb(115,115,115);stroke-linecap:round;fill:none;" />
<line x1='1196.9' y1='184.5' x2='1219.4' y2='281.9' style="stroke-width:2.0;stroke:rgb(255,255,255);stroke-linecap:round;fill:none;" />
<text x="1178.3" y="168.3" font-size="33.8px" font-family="CMUBright-Roman" style="text-anchor:end;fill:rgb(115,115,115);" transform="rotate(77.0,1178.3,168.3)" >80%</text>
<line x1='1261.5' y1='171.2' x2='1258.9' y2='156.5' style="stroke-width:2.0;stroke:rgb(115,115,115);stroke-linecap:round;fill:none;" />
<line x1='1261.5' y1='171.2' x2='1279.2' y2='269.7' style="stroke-width:1.0;stroke:rgb(255,255,255);stroke-linecap:round;fill:none;" />
<line x1='1326.7' y1='161.2' x2='1324.8' y2='146.3' style="stroke-width:2.0;stroke:rgb(115,115,115);stroke-linecap:round;fill:none;" />
<line x1='1326.7' y1='161.2' x2='1339.6' y2='260.3' style="stroke-width:2.0;stroke:rgb(255,255,255);stroke-linecap:round;fill:none;" />
<text x="1309.8" y="143.3" font-size="33.8px" font-family="CMUBright-Roman" style="text-anchor:end;fill:rgb(115,115,115);" transform="rotate(82.6,1309.8,143.3)" >90%</text>
<line x1='1392.4' y1='154.3' x2='1391.2' y2='139.3' style="stroke-width:2.0;stroke:rgb(115,115,115);stroke-linecap:round;fill:none;" />
<line x1='1392.4' y1='154.3' x2='1400.3' y2='254.0' style="stroke-width:1.0;stroke:rgb(255,255,255);stroke-linecap:round;fill:none;" />
<line x1='1458.2' y1='150.6' x2='1457.8' y2='135.7' style="stroke-width:2.0;stroke:rgb(115,115,115);stroke-linecap:round;fill:none;" />
<line x1='1458.2' y1='150.6' x2='1461.3' y2='250.6' style="stroke-width:2.0;stroke:rgb(255,255,255);stroke-linecap:round;fill:none;" />
<text x="1443.1" y="131.2" font-size="33.8px" font-family="CMUBright-Roman" style="text-anchor:end;fill:rgb(115,115,115);" transform="rotate(88.2,1443.1,131.2)" >100%</text>
<path d="M442.544,833.452 A1250.000,1250.000 40.000 0,1 1461.317,250.599 L1458.222,150.647 A1350.000,1350.000 0.000 0,0 357.947,780.128 Z" style="stroke-width:2.0;stroke:rgb(115,115,115);stroke-linecap:round;fill:none;" />
</g>
<g id="track_0">
<path d="M 1673.5,325.2 L 1672.2,341.6 1673.3,357.5 1676.5,372.8 1681.7,387.8 1688.9,402.3 1697.8,416.5 1708.4,430.3 1720.5,443.9 1734.0,457.1 1748.9,470.2 1764.8,482.9 1781.9,495.5 1799.8,507.8 1818.6,519.9 1838.2,531.7 1858.3,543.2 1879.0,554.5 1900.1,565.4 1921.6,576.0 1943.3,586.2 1965.1,596.0 1987.0,605.3 2008.8,614.0 2030.6,622.2 2052.1,629.7 2073.4,636.5 2094.4,642.6 2114.9,647.7 2134.9,651.8 2154.4,654.9 2173.2,656.9 2191.4,657.6 2208.8,656.9 2225.4,654.8 2241.2,651.0 2256.0,645.6 2269.9,638.2 2282.8,629.0 2294.6,617.5  " style="stroke-opacity: 1.000000; stroke-width: 3.0; stroke: rgb(251,106,74); fill: none"  />
<path d="M 1673.5,325.2 L 1671.0,355.1 1672.2,384.5 1676.9,413.6 1684.8,442.3 1695.7,470.9 1709.2,499.3 1725.3,527.7 1743.6,556.0 1763.9,584.4 1786.0,612.8 1809.8,641.3 1835.0,669.9 1861.5,698.5 1889.1,727.2 1917.6,756.0 1947.0,784.7 1977.0,813.4 2007.6,842.0 2038.6,870.4 2069.8,898.6 2101.4,926.5 2133.0,953.9 2164.7,980.7 2196.3,1006.9 2227.9,1032.3 2259.3,1056.8 2290.6,1080.1 2321.6,1102.2 2352.4,1122.9 2383.0,1141.9 2413.3,1159.2 2443.5,1174.4 2473.3,1187.4 2503.0,1197.9 2532.6,1205.7 2562.0,1210.5 2591.4,1212.2 2620.7,1210.3 2650.2,1204.7  " style="stroke-opacity: 1.000000; stroke-width: 3.0; stroke: rgb(251,106,74); fill: none"  />
<path d="M 1673.5,325.2 L 1669.7,364.7 1670.0,403.5 1673.9,441.7 1681.2,479.4 1691.7,516.8 1704.9,553.8 1720.6,590.7 1738.6,627.5 1758.6,664.3 1780.4,701.0 1803.7,737.8 1828.5,774.6 1854.4,811.5 1881.4,848.4 1909.3,885.4 1937.8,922.5 1967.0,959.5 1996.7,996.5 2026.7,1033.4 2057.1,1070.1 2087.7,1106.5 2118.4,1142.6 2149.4,1178.2 2180.4,1213.2 2211.5,1247.5 2242.8,1280.9 2274.1,1313.3 2305.7,1344.5 2337.4,1374.4 2369.4,1402.7 2401.7,1429.2 2434.5,1453.8 2467.8,1476.1 2501.7,1496.0 2536.5,1513.3 2572.1,1527.5 2608.9,1538.6 2647.0,1546.1 2686.5,1549.8  " style="stroke-opacity: 1.000000; stroke-width: 3.0; stroke: rgb(251,106,74); fill: none"  />
<path d="M 1673.5,325.2 L 1666.0,388.4 1662.2,449.5 1661.7,508.6 1664.3,566.0 1669.5,621.8 1677.0,676.2 1686.6,729.3 1698.0,781.3 1710.9,832.3 1725.1,882.4 1740.4,931.8 1756.6,980.6 1773.5,1028.8 1791.1,1076.5 1809.2,1123.9 1827.6,1171.0 1846.4,1217.8 1865.4,1264.5 1884.7,1311.0 1904.2,1357.4 1924.0,1403.7 1944.0,1450.0 1964.3,1496.2 1985.0,1542.3 2006.2,1588.3 2028.0,1634.3 2050.6,1680.2 2074.1,1725.8 2098.7,1771.3 2124.6,1816.6 2152.0,1861.4 2181.2,1905.9 2212.4,1950.0 2246.0,1993.4 2282.2,2036.2 2321.4,2078.1 2364.0,2119.2 2410.3,2159.2 2460.7,2198.1  " style="stroke-opacity: 1.000000; stroke-width: 3.0; stroke: rgb(251,106,74); fill: none"  />
<path d="M 598.7,726.8 L 608.3,734.5 617.6,741.0 626.9,746.4 635.9,750.7 644.9,754.1 653.7,756.5 662.3,758.1 670.8,758.9 679.2,758.8 687.4,758.1 695.4,756.7 703.3,754.6 711.0,752.0 718.5,748.8 725.8,745.1 732.9,741.0 739.8,736.4 746.3,731.4 752.6,726.0 758.6,720.2 764.3,714.2 769.6,707.8 774.5,701.2 778.9,694.3 782.9,687.1 786.4,679.8 789.4,672.2 791.8,664.4 793.5,656.4 794.6,648.2 795.0,639.9 794.6,631.4 793.4,622.7 791.3,613.8 788.4,604.7 784.4,595.5 779.4,586.0 773.3,576.3 766.1,566.5  " style="stroke-opacity: 1.000000; stroke-width: 3.0; stroke: rgb(107,174,214); fill: none"  />
<path d="M 598.7,726.8 L 610.7,735.8 623.3,742.9 636.3,748.0 649.9,751.4 664.0,753.2 678.6,753.4 693.6,752.3 709.0,749.8 724.7,746.1 740.8,741.3 757.1,735.4 773.7,728.6 790.5,721.0 807.4,712.5 824.4,703.4 841.4,693.6 858.4,683.2 875.2,672.4 892.0,661.1 908.5,649.4 924.6,637.3 940.5,624.9 955.8,612.3 970.7,599.5 984.9,586.5 998.5,573.3 1011.2,560.0 1023.1,546.6 1034.0,533.1 1043.8,519.5 1052.5,505.9 1059.9,492.1 1066.0,478.4 1070.6,464.6 1073.5,450.7 1074.8,436.7 1074.3,422.6 1071.8,408.5 1067.2,394.2  " style="stroke-opacity: 1.000000; stroke-width: 3.0; stroke: rgb(107,174,214); fill: none"  />
<path d="M 598.7,726.8 L 640.2,765.0 677.7,804.5 711.6,845.3 742.3,887.2 770.1,930.2 795.4,974.1 818.4,1018.8 839.5,1064.3 858.9,1110.4 876.9,1157.1 893.6,1204.4 909.3,1252.0 924.1,1300.0 938.3,1348.4 951.8,1397.0 964.9,1445.8 977.6,1494.8 989.9,1543.9 1002.0,1593.2 1013.8,1642.5 1025.3,1691.8 1036.6,1741.2 1047.4,1790.6 1057.9,1840.1 1067.8,1889.6 1077.1,1939.1 1085.7,1988.6 1093.2,2038.2 1099.7,2087.9 1104.9,2137.7 1108.5,2187.6 1110.3,2237.7 1110.0,2288.0 1107.3,2338.6 1102.0,2389.5 1093.6,2440.7 1081.8,2492.5 1066.3,2544.7 1046.6,2597.5  " style="stroke-opacity: 1.000000; stroke-width: 3.0; stroke: rgb(107,174,214); fill: none"  />
<path d="M 598.7,726.8 L 612.4,740.4 623.7,755.5 632.7,772.0 639.7,789.9 644.7,809.0 648.0,829.4 649.6,850.8 649.8,873.3 648.6,896.8 646.1,921.2 642.5,946.4 637.9,972.2 632.4,998.8 626.1,1025.8 619.0,1053.3 611.2,1081.1 602.9,1109.1 594.0,1137.2 584.7,1165.4 574.9,1193.5 564.7,1221.4 554.2,1249.0 543.3,1276.1 532.1,1302.7 520.6,1328.7 508.7,1353.8 496.6,1378.0 484.1,1401.1 471.3,1423.1 458.1,1443.7 444.4,1462.8 430.3,1480.4 415.7,1496.2 400.5,1510.1 384.7,1522.0 368.2,1531.6 350.8,1539.0 332.6,1543.8 313.4,1545.9  " style="stroke-opacity: 1.000000; stroke-width: 3.0; stroke: rgb(107,174,214); fill: none"  />
<path d="M 598.7,726.8 L 619.0,742.0 640.9,754.0 664.1,763.1 688.7,769.5 714.5,773.5 741.7,775.3 770.0,775.1 799.3,773.0 829.8,769.2 861.1,764.0 893.3,757.4 926.3,749.7 960.0,740.9 994.2,731.2 1029.0,720.7 1064.1,709.4 1099.4,697.6 1135.0,685.2 1170.5,672.4 1206.0,659.1 1241.3,645.5 1276.3,631.5 1310.7,617.3 1344.6,602.7 1377.7,587.9 1410.0,572.8 1441.1,557.3 1471.1,541.6 1499.7,525.4 1526.8,508.8 1552.3,491.7 1575.8,474.0 1597.3,455.6 1616.6,436.5 1633.6,416.5 1647.9,395.5 1659.5,373.4 1668.1,350.0 1673.5,325.2  " style="stroke-opacity: 1.000000; stroke-width: 3.0; stroke: rgb(107,174,214); fill: none"  />
<path d="M 598.7,726.8 L 633.7,754.2 670.2,777.6 707.9,797.5 746.9,814.2 787.1,828.0 828.4,839.3 870.8,848.4 914.2,855.4 958.4,860.7 1003.5,864.5 1049.4,867.0 1095.9,868.4 1143.0,868.8 1190.7,868.4 1238.8,867.4 1287.3,865.8 1336.0,863.7 1385.0,861.3 1434.0,858.4 1483.1,855.3 1532.1,851.8 1581.0,848.0 1629.6,843.7 1677.9,839.1 1725.7,834.0 1773.0,828.2 1819.7,821.7 1865.7,814.4 1910.8,806.0 1955.1,796.5 1998.3,785.5 2040.4,773.0 2081.2,758.6 2120.7,742.1 2158.8,723.2 2195.4,701.7 2230.3,677.1 2263.4,649.2 2294.6,617.5  " style="stroke-opacity: 1.000000; stroke-width: 3.0; stroke: rgb(107,174,214); fill: none"  />
<path d="M 598.7,726.8 L 652.5,770.8 706.1,810.4 759.2,846.1 811.9,878.2 864.3,907.1 916.2,933.2 967.7,956.9 1018.8,978.3 1069.5,997.9 1119.8,1015.8 1169.7,1032.3 1219.3,1047.7 1268.6,1062.1 1317.5,1075.7 1366.2,1088.6 1414.7,1101.1 1463.0,1113.1 1511.2,1124.8 1559.3,1136.2 1607.5,1147.5 1655.8,1158.5 1704.2,1169.3 1752.9,1179.8 1801.8,1190.1 1851.2,1200.0 1901.2,1209.4 1951.7,1218.3 2002.9,1226.4 2055.0,1233.6 2108.1,1239.8 2162.2,1244.7 2217.5,1248.0 2274.2,1249.6 2332.3,1249.1 2392.0,1246.3 2453.5,1240.8 2517.0,1232.3 2582.5,1220.4 2650.2,1204.7  " style="stroke-opacity: 1.000000; stroke-width: 3.0; stroke: rgb(107,174,214); fill: none"  />
</g>
<g id="plot0">
<g id="plot0-axis">
</g>
<line x1='2686.5' y1='1549.8' x2='2886.3' y2='1558.2' style="stroke-width:3.0;stroke:rgb(0,0,0);stroke-linecap:round;fill:none;" />
<line x1='2886.3' y1='1558.2' x2='2906.3' y2='1559.0' style="stroke-width:3.0;stroke:rgb(0,0,0);stroke-linecap:round;fill:none;" />
<line x1='2906.3' y1='1559.0' x2='2916.3' y2='1559.4' style="stroke-width:3.0;stroke:rgb(0,0,0);stroke-linecap:round;fill:none;" />
<text x="2935.4" y="1577.3" font-size="46.8px" font-family="CMUBright-Bold" style="text-anchor:start;fill:rgb(0,0,0);" transform="rotate(2.4,2935.4,1577.3)" >D</text>
<line x1='598.7' y1='726.8' x2='446.9' y2='596.6' style="stroke-width:3.0;stroke:rgb(0,0,0);stroke-linecap:round;fill:none;" />
<line x1='446.9' y1='596.6' x2='431.7' y2='583.6' style="stroke-width:3.0;stroke:rgb(0,0,0);stroke-linecap:round;fill:none;" />
<line x1='431.7' y1='583.6' x2='424.1' y2='577.1' style="stroke-width:3.0;stroke:rgb(0,0,0);stroke-linecap:round;fill:none;" />
<text x="398.0" y="577.0" font-size="46.8px" font-family="CMUBright-Bold" style="text-anchor:end;fill:rgb(0,0,0);" transform="rotate(40.6,398.0,577.0)" >H</text>
<line x1='1673.5' y1='325.2' x2='1702.7' y2='127.4' style="stroke-width:3.0;stroke:rgb(0,0,0);stroke-linecap:round;fill:none;" />
<line x1='1702.7' y1='127.4' x2='1705.6' y2='107.6' style="stroke-width:3.0;stroke:rgb(0,0,0);stroke-linecap:round;fill:none;" />
<line x1='1705.6' y1='107.6' x2='1707.1' y2='97.7' style="stroke-width:3.0;stroke:rgb(0,0,0);stroke-linecap:round;fill:none;" />
<text x="1726.8" y="80.5" font-size="46.8px" font-family="CMUBright-Bold" style="text-anchor:start;fill:rgb(0,0,0);" transform="rotate(278.4,1726.8,80.5)" >A</text>
<line x1='313.4' y1='1545.9' x2='113.5' y2='1553.7' style="stroke-width:3.0;stroke:rgb(0,0,0);stroke-linecap:round;fill:none;" />
<line x1='113.5' y1='1553.7' x2='93.6' y2='1554.4' style="stroke-width:3.0;stroke:rgb(0,0,0);stroke-linecap:round;fill:none;" />
<line x1='93.6' y1='1554.4' x2='83.6' y2='1554.8' style="stroke-width:3.0;stroke:rgb(0,0,0);stroke-linecap:round;fill:none;" />
<text x="64.4" y="1574.1" font-size="46.8px" font-family="CMUBright-Bold" style="text-anchor:end;fill:rgb(0,0,0);" transform="rotate(-2.2,64.4,1574.1)" >G</text>
<line x1='2294.6' y1='617.5' x2='2428.4' y2='468.9' style="stroke-width:3.0;stroke:rgb(0,0,0);stroke-linecap:round;fill:none;" />
<line x1='2428.4' y1='468.9' x2='2441.8' y2='454.0' style="stroke-width:3.0;stroke:rgb(0,0,0);stroke-linecap:round;fill:none;" />
<line x1='2441.8' y1='454.0' x2='2448.5' y2='446.6' style="stroke-width:3.0;stroke:rgb(0,0,0);stroke-linecap:round;fill:none;" />
<text x="2474.5" y="443.2" font-size="46.8px" font-family="CMUBright-Bold" style="text-anchor:start;fill:rgb(0,0,0);" transform="rotate(312.0,2474.5,443.2)" >B</text>
<line x1='2650.2' y1='1204.7' x2='2843.9' y2='1155.0' style="stroke-width:3.0;stroke:rgb(0,0,0);stroke-linecap:round;fill:none;" />
<line x1='2843.9' y1='1155.0' x2='2863.3' y2='1150.0' style="stroke-width:3.0;stroke:rgb(0,0,0);stroke-linecap:round;fill:none;" />
<line x1='2863.3' y1='1150.0' x2='2873.0' y2='1147.5' style="stroke-width:3.0;stroke:rgb(0,0,0);stroke-linecap:round;fill:none;" />
<text x="2896.8" y="1160.5" font-size="46.8px" font-family="CMUBright-Bold" style="text-anchor:start;fill:rgb(0,0,0);" transform="rotate(345.6,2896.8,1160.5)" >C</text>
<line x1='2460.7' y1='2198.1' x2='2622.4' y2='2315.6' style="stroke-width:3.0;stroke:rgb(0,0,0);stroke-linecap:round;fill:none;" />
<line x1='2622.4' y1='2315.6' x2='2638.6' y2='2327.4' style="stroke-width:3.0;stroke:rgb(0,0,0);stroke-linecap:round;fill:none;" />
<line x1='2638.6' y1='2327.4' x2='2646.7' y2='2333.3' style="stroke-width:3.0;stroke:rgb(0,0,0);stroke-linecap:round;fill:none;" />
<text x="2652.8" y="2358.7" font-size="46.8px" font-family="CMUBright-Bold" style="text-anchor:start;fill:rgb(0,0,0);" transform="rotate(36.0,2652.8,2358.7)" >E</text>
<line x1='1046.6' y1='2597.5' x2='970.2' y2='2782.4' style="stroke-width:3.0;stroke:rgb(0,0,0);stroke-linecap:round;fill:none;" />
<line x1='970.2' y1='2782.4' x2='962.6' y2='2800.9' style="stroke-width:3.0;stroke:rgb(0,0,0);stroke-linecap:round;fill:none;" />
<line x1='962.6' y1='2800.9' x2='958.7' y2='2810.1' style="stroke-width:3.0;stroke:rgb(0,0,0);stroke-linecap:round;fill:none;" />
<text x="966.9" y="2835.0" font-size="46.8px" font-family="CMUBright-Bold" style="text-anchor:end;fill:rgb(0,0,0);" transform="rotate(-67.6,966.9,2835.0)" >F</text>
<line x1='1067.2' y1='394.2' x2='994.3' y2='207.9' style="stroke-width:3.0;stroke:rgb(0,0,0);stroke-linecap:round;fill:none;" />
<line x1='994.3' y1='207.9' x2='987.0' y2='189.3' style="stroke-width:3.0;stroke:rgb(0,0,0);stroke-linecap:round;fill:none;" />
<line x1='987.0' y1='189.3' x2='983.4' y2='180.0' style="stroke-width:3.0;stroke:rgb(0,0,0);stroke-linecap:round;fill:none;" />
<text x="959.8" y="167.8" font-size="46.8px" font-family="CMUBright-Bold" style="text-anchor:end;fill:rgb(0,0,0);" transform="rotate(68.6,959.8,167.8)" >J</text>
<line x1='766.1' y1='566.5' x2='642.4' y2='409.2' style="stroke-width:3.0;stroke:rgb(0,0,0);stroke-linecap:round;fill:none;" />
<line x1='642.4' y1='409.2' x2='630.1' y2='393.5' style="stroke-width:3.0;stroke:rgb(0,0,0);stroke-linecap:round;fill:none;" />
<line x1='630.1' y1='393.5' x2='623.9' y2='385.7' style="stroke-width:3.0;stroke:rgb(0,0,0);stroke-linecap:round;fill:none;" />
<text x="598.2" y="380.5" font-size="46.8px" font-family="CMUBright-Bold" style="text-anchor:end;fill:rgb(0,0,0);" transform="rotate(51.8,598.2,380.5)" >I</text>
</g>
<g id="plot1">
<g id="plot1-axis">
</g>
<circle cx='1673.5' cy='325.2' r='18.0' style="stroke-width:2.0;stroke:rgb(0,0,0);fill:rgb(49,130,189);" />
<circle cx='2294.6' cy='617.5' r='18.0' style="stroke-width:2.0;stroke:rgb(0,0,0);fill:rgb(49,130,189);" />
<circle cx='2650.2' cy='1204.7' r='18.0' style="stroke-width:2.0;stroke:rgb(0,0,0);fill:rgb(49,130,189);" />
<circle cx='2686.5' cy='1549.8' r='18.0' style="stroke-width:2.0;stroke:rgb(0,0,0);fill:rgb(49,130,189);" />
<circle cx='2460.7' cy='2198.1' r='18.0' style="stroke-width:2.0;stroke:rgb(0,0,0);fill:rgb(49,130,189);" />
<circle cx='598.7' cy='726.8' r='18.0' style="stroke-width:2.0;stroke:rgb(0,0,0);fill:rgb(222,45,38);" />
<circle cx='766.1' cy='566.5' r='18.0' style="stroke-width:2.0;stroke:rgb(0,0,0);fill:rgb(222,45,38);" />
<circle cx='1067.2' cy='394.2' r='18.0' style="stroke-width:2.0;stroke:rgb(0,0,0);fill:rgb(222,45,38);" />
<circle cx='1046.6' cy='2597.5' r='18.0' style="stroke-width:2.0;stroke:rgb(0,0,0);fill:rgb(49,130,189);" />
<circle cx='313.4' cy='1545.9' r='18.0' style="stroke-width:2.0;stroke:rgb(0,0,0);fill:rgb(49,130,189);" />
</g>
</svg>
