<?xml version="1.0" encoding="utf-8" standalone="no"?>
<!DOCTYPE svg PUBLIC "-//W3C//DTD SVG 1.1//EN" "http://www.w3.org/Graphics/SVG/1.1/DTD/svg11.dtd">
<svg width="3000px" height="3000px" version="1.1" xmlns="http://www.w3.org/2000/svg" xmlns:xlink="http://www.w3.org/1999/xlink">
<g id="ideograms">
<path d="M1500.000,250.000 A1250.000,1250.000 40.000 1,1 271.440,1730.520 L173.155,1748.962 A1350.000,1350.000 0.000 1,0 1500.000,150.000 Z" style="stroke-width:2.0;stroke:rgb(115,115,115);stroke-linecap:round;fill:rgb(189,189,189);"/>
<text x="2528.1" y="2353.2" font-size="93.6px" font-family="CMUBright-Bold" style="text-anchor:middle;fill:rgb(255,255,255);" transform="rotate(-50.3,2528.1,2353.2)">G1</text>
<line x1='1500.0' y1='150.0' x2='1500.0' y2='135.0' style="stroke-width:2.0;stroke:rgb(115,115,115);stroke-linecap:round;fill:none;"/>
<line x1='1500.0' y1='150.0' x2='1500.0' y2='250.0' style="stroke-width:2.0;stroke:rgb(255,255,255);stroke-linecap:round;fill:none;"/>
<text x="1514.5" y="130.1" font-size="33.8px" font-family="CMUBright-Roman" style="text-anchor:start;fill:rgb(115,115,115);" transform="rotate(270.0,1514.5,130.1)">0%</text>
<line x1='1803.0' y1='184.4' x2='1806.3' y2='169.8' style="stroke-width:2.0;stroke:rgb(115,115,115);stroke-linecap:round;fill:none;"/>
<line x1='1803.0' y1='184.4' x2='1780.5' y2='281.9' style="stroke-width:1.0;stroke:rgb(255,255,255);stroke-linecap:round;fill:none;"/>
<line x1='2090.5' y1='286.0' x2='2097.0' y2='272.5' style="stroke-width:2.0;stroke:rgb(115,115,115);stroke-linecap:round;fill:none;"/>
<line x1='2090.5' y1='286.0' x2='2046.7' y2='375.9' style="stroke-width:2.0;stroke:rgb(255,255,255);stroke-linecap:round;fill:none;"/>
<text x="2112.2" y="274.4" font-size="33.8px" font-family="CMUBright-Roman" style="text-anchor:start;fill:rgb(115,115,115);" transform="rotate(295.9,2112.2,274.4)">10%</text>
<line x1='2347.9' y1='449.5' x2='2357.3' y2='437.8' style="stroke-width:2.0;stroke:rgb(115,115,115);stroke-linecap:round;fill:none;"/>
<line x1='2347.9' y1='449.5' x2='2285.1' y2='527.3' style="stroke-width:1.0;stroke:rgb(255,255,255);stroke-linecap:round;fill:none;"/>
<line x1='2562.0' y1='666.5' x2='2573.8' y2='657.3' style="stroke-width:2.0;stroke:rgb(115,115,115);stroke-linecap:round;fill:none;"/>
<line x1='2562.0' y1='666.5' x2='2483.3' y2='728.3' style="stroke-width:2.0;stroke:rgb(255,255,255);stroke-linecap:round;fill:none;"/>
<text x="2586.6" y="665.6" font-size="33.8px" font-family="CMUBright-Roman" style="text-anchor:start;fill:rgb(115,115,115);" transform="rotate(321.9,2586.6,665.6)">20%</text>
<line x1='2721.9' y1='926.1' x2='2735.5' y2='919.7' style="stroke-width:2.0;stroke:rgb(115,115,115);stroke-linecap:round;fill:none;"/>
<line x1='2721.9' y1='926.1' x2='2631.4' y2='968.6' style="stroke-width:1.0;stroke:rgb(255,255,255);stroke-linecap:round;fill:none;"/>
<line x1='2819.6' y1='1215.0' x2='2834.2' y2='1211.8' style="stroke-width:2.0;stroke:rgb(115,115,115);stroke-linecap:round;fill:none;"/>
<line x1='2819.6' y1='1215.0' x2='2721.8' y2='1236.1' style="stroke-width:2.0;stroke:rgb(255,255,255);stroke-linecap:round;fill:none;"/>
<text x="2842.1" y="1225.0" font-size="33.8px" font-family="CMUBright-Roman" style="text-anchor:start;fill:rgb(115,115,115);" transform="rotate(347.8,2842.1,1225.0)">30%</text>
<line x1='2849.9' y1='1518.4' x2='2864.9' y2='1518.6' style="stroke-width:2.0;stroke:rgb(115,115,115);stroke-linecap:round;fill:none;"/>
<line x1='2849.9' y1='1518.4' x2='2749.9' y2='1517.0' style="stroke-width:1.0;stroke:rgb(255,255,255);stroke-linecap:round;fill:none;"/>
<line x1='2811.3' y1='1820.9' x2='2825.9' y2='1824.4' style="stroke-width:2.0;stroke:rgb(115,115,115);stroke-linecap:round;fill:none;"/>
<line x1='2811.3' y1='1820.9' x2='2714.2' y2='1797.1' style="stroke-width:2.0;stroke:rgb(255,255,255);stroke-linecap:round;fill:none;"/>
<text x="2827.2" y="1839.7" font-size="33.8px" font-family="CMUBright-Roman" style="text-anchor:start;fill:rgb(115,115,115);" transform="rotate(13.7,2827.2,1839.7)">40%</text>
<line x1='2705.9' y1='2107.0' x2='2719.3' y2='2113.7' style="stroke-width:2.0;stroke:rgb(115,115,115);stroke-linecap:round;fill:none;"/>
<line x1='2705.9' y1='2107.0' x2='2616.5' y2='2062.0' style="stroke-width:1.0;stroke:rgb(255,255,255);stroke-linecap:round;fill:none;"/>
<line x1='2538.9' y1='2362.1' x2='2550.4' y2='2371.7' style="stroke-width:2.0;stroke:rgb(115,115,115);stroke-linecap:round;fill:none;"/>
<line x1='2538.9' y1='2362.1' x2='2461.9' y2='2298.2' style="stroke-width:2.0;stroke:rgb(255,255,255);stroke-linecap:round;fill:none;"/>
<text x="2545.0" y="2386.0" font-size="33.8px" font-family="CMUBright-Roman" style="text-anchor:start;fill:rgb(115,115,115);" transform="rotate(39.7,2545.0,2386.0)">50%</text>
<line x1='2318.9' y1='2573.2' x2='2328.0' y2='2585.2' style="stroke-width:2.0;stroke:rgb(115,115,115);stroke-linecap:round;fill:none;"/>
<line x1='2318.9' y1='2573.2' x2='2258.3' y2='2493.7' style="stroke-width:1.0;stroke:rgb(255,255,255);stroke-linecap:round;fill:none;"/>
<line x1='2057.2' y1='2729.7' x2='2063.4' y2='2743.3' style="stroke-width:2.0;stroke:rgb(115,115,115);stroke-linecap:round;fill:none;"/>
<line x1='2057.2' y1='2729.7' x2='2015.9' y2='2638.6' style="stroke-width:2.0;stroke:rgb(255,255,255);stroke-linecap:round;fill:none;"/>
<text x="2052.2" y="2753.8" font-size="33.8px" font-family="CMUBright-Roman" style="text-anchor:start;fill:rgb(115,115,115);" transform="rotate(65.6,2052.2,2753.8)">60%</text>
<line x1='1767.0' y1='2823.3' x2='1770.0' y2='2838.0' style="stroke-width:2.0;stroke:rgb(115,115,115);stroke-linecap:round;fill:none;"/>
<line x1='1767.0' y1='2823.3' x2='1747.2' y2='2725.3' style="stroke-width:1.0;stroke:rgb(255,255,255);stroke-linecap:round;fill:none;"/>
<line x1='1463.2' y1='2849.5' x2='1462.8' y2='2864.5' style="stroke-width:2.0;stroke:rgb(115,115,115);stroke-linecap:round;fill:none;"/>
<line x1='1463.2' y1='2849.5' x2='1465.9' y2='2749.5' style="stroke-width:2.0;stroke:rgb(255,255,255);stroke-linecap:round;fill:none;"/>
<text x="1477.2" y="2869.8" font-size="33.8px" font-family="CMUBright-Roman" style="text-anchor:end;fill:rgb(115,115,115);" transform="rotate(-88.4,1477.2,2869.8)">70%</text>
<line x1='1161.3' y1='2806.8' x2='1157.5' y2='2821.3' style="stroke-width:2.0;stroke:rgb(115,115,115);stroke-linecap:round;fill:none;"/>
<line x1='1161.3' y1='2806.8' x2='1186.4' y2='2710.0' style="stroke-width:1.0;stroke:rgb(255,255,255);stroke-linecap:round;fill:none;"/>
<line x1='876.7' y1='2697.5' x2='869.7' y2='2710.8' style="stroke-width:2.0;stroke:rgb(115,115,115);stroke-linecap:round;fill:none;"/>
<line x1='876.7' y1='2697.5' x2='922.8' y2='2608.8' style="stroke-width:2.0;stroke:rgb(255,255,255);stroke-linecap:round;fill:none;"/>
<text x="880.3" y="2721.9" font-size="33.8px" font-family="CMUBright-Roman" style="text-anchor:end;fill:rgb(115,115,115);" transform="rotate(-62.5,880.3,2721.9)">80%</text>
<line x1='623.8' y1='2527.1' x2='614.1' y2='2538.5' style="stroke-width:2.0;stroke:rgb(115,115,115);stroke-linecap:round;fill:none;"/>
<line x1='623.8' y1='2527.1' x2='688.7' y2='2451.0' style="stroke-width:1.0;stroke:rgb(255,255,255);stroke-linecap:round;fill:none;"/>
<line x1='415.7' y1='2304.2' x2='403.6' y2='2313.2' style="stroke-width:2.0;stroke:rgb(115,115,115);stroke-linecap:round;fill:none;"/>
<line x1='415.7' y1='2304.2' x2='496.0' y2='2244.7' style="stroke-width:2.0;stroke:rgb(255,255,255);stroke-linecap:round;fill:none;"/>
<text x="408.3" y="2327.7" font-size="33.8px" font-family="CMUBright-Roman" style="text-anchor:end;fill:rgb(115,115,115);" transform="rotate(-36.6,408.3,2327.7)">90%</text>
<line x1='262.9' y1='2040.4' x2='249.1' y2='2046.4' style="stroke-width:2.0;stroke:rgb(115,115,115);stroke-linecap:round;fill:none;"/>
<line x1='262.9' y1='2040.4' x2='354.5' y2='2000.4' style="stroke-width:1.0;stroke:rgb(255,255,255);stroke-linecap:round;fill:none;"/>
<line x1='173.2' y1='1749.0' x2='158.4' y2='1751.7' style="stroke-width:2.0;stroke:rgb(115,115,115);stroke-linecap:round;fill:none;"/>
<line x1='173.2' y1='1749.0' x2='271.4' y2='1730.5' style="stroke-width:2.0;stroke:rgb(255,255,255);stroke-linecap:round;fill:none;"/>
<text x="156.2" y="1766.9" font-size="33.8px" font-family="CMUBright-Roman" style="text-anchor:end;fill:rgb(115,115,115);" transform="rotate(-10.6,156.2,1766.9)">100%</text>
<path d="M1500.000,250.000 A1250.000,1250.000 40.000 1,1 271.440,1730.520 L173.155,1748.962 A1350.000,1350.000 0.000 1,0 1500.000,150.000 Z" style="stroke-width:2.0;stroke:rgb(115,115,115);stroke-linecap:round;fill:none;"/>
<path d="M265.754,1697.828 A1250.000,1250.000 40.000 0,1 840.170,438.339 L787.384,353.406 A1350.000,1350.000 0.000 0,0 167.014,1713.655 Z" style="stroke-width:2.0;stroke:rgb(115,115,115);stroke-linecap:round;fill:rgb(150,150,150);"/>
<text x="350.0" y="975.5" font-size="93.6px" font-family="CMUBright-Bold" style="text-anchor:middle;fill:rgb(255,255,255);" transform="rotate(-65.5,350.0,975.5)">S</text>
<line x1='167.0' y1='1713.7' x2='152.2' y2='1716.0' style="stroke-width:2.0;stroke:rgb(115,115,115);stroke-linecap:round;fill:none;"/>
<line x1='167.0' y1='1713.7' x2='265.8' y2='1697.8' style="stroke-width:2.0;stroke:rgb(255,255,255);stroke-linecap:round;fill:none;"/>
<text x="149.6" y="1731.1" font-size="33.8px" font-family="CMUBright-Roman" style="text-anchor:end;fill:rgb(115,115,115);" transform="rotate(-9.1,149.6,1731.1)">0%</text>
<line x1='156.8' y1='1635.1' x2='141.9' y2='1636.6' style="stroke-width:2.0;stroke:rgb(115,115,115);stroke-linecap:round;fill:none;"/>
<line x1='156.8' y1='1635.1' x2='256.3' y2='1625.1' style="stroke-width:1.0;stroke:rgb(255,255,255);stroke-linecap:round;fill:none;"/>
<line x1='151.2' y1='1556.1' x2='136.2' y2='1556.7' style="stroke-width:2.0;stroke:rgb(115,115,115);stroke-linecap:round;fill:none;"/>
<line x1='151.2' y1='1556.1' x2='251.1' y2='1551.9' style="stroke-width:2.0;stroke:rgb(255,255,255);stroke-linecap:round;fill:none;"/>
<text x="131.9" y="1571.4" font-size="33.8px" font-family="CMUBright-Roman" style="text-anchor:end;fill:rgb(115,115,115);" transform="rotate(-2.4,131.9,1571.4)">10%</text>
<line x1='150.2' y1='1476.9' x2='135.2' y2='1476.6' style="stroke-width:2.0;stroke:rgb(115,115,115);stroke-linecap:round;fill:none;"/>
<line x1='150.2' y1='1476.9' x2='250.2' y2='1478.6' style="stroke-width:1.0;stroke:rgb(255,255,255);stroke-linecap:round;fill:none;"/>
<line x1='153.9' y1='1397.8' x2='138.9' y2='1396.6' style="stroke-width:2.0;stroke:rgb(115,115,115);stroke-linecap:round;fill:none;"/>
<line x1='153.9' y1='1397.8' x2='253.6' y2='1405.3' style="stroke-width:2.0;stroke:rgb(255,255,255);stroke-linecap:round;fill:none;"/>
<text x="132.9" y="1410.7" font-size="33.8px" font-family="CMUBright-Roman" style="text-anchor:end;fill:rgb(115,115,115);" transform="rotate(4.3,132.9,1410.7)">20%</text>
<line x1='162.2' y1='1319.0' x2='147.3' y2='1317.0' style="stroke-width:2.0;stroke:rgb(115,115,115);stroke-linecap:round;fill:none;"/>
<line x1='162.2' y1='1319.0' x2='261.3' y2='1332.4' style="stroke-width:1.0;stroke:rgb(255,255,255);stroke-linecap:round;fill:none;"/>
<line x1='175.1' y1='1240.8' x2='160.4' y2='1238.0' style="stroke-width:2.0;stroke:rgb(115,115,115);stroke-linecap:round;fill:none;"/>
<line x1='175.1' y1='1240.8' x2='273.2' y2='1260.0' style="stroke-width:2.0;stroke:rgb(255,255,255);stroke-linecap:round;fill:none;"/>
<text x="152.8" y="1251.3" font-size="33.8px" font-family="CMUBright-Roman" style="text-anchor:end;fill:rgb(115,115,115);" transform="rotate(11.1,152.8,1251.3)">30%</text>
<line x1='192.6' y1='1163.6' x2='178.1' y2='1159.9' style="stroke-width:2.0;stroke:rgb(115,115,115);stroke-linecap:round;fill:none;"/>
<line x1='192.6' y1='1163.6' x2='289.4' y2='1188.5' style="stroke-width:1.0;stroke:rgb(255,255,255);stroke-linecap:round;fill:none;"/>
<line x1='214.6' y1='1087.5' x2='200.3' y2='1082.9' style="stroke-width:2.0;stroke:rgb(115,115,115);stroke-linecap:round;fill:none;"/>
<line x1='214.6' y1='1087.5' x2='309.8' y2='1118.0' style="stroke-width:2.0;stroke:rgb(255,255,255);stroke-linecap:round;fill:none;"/>
<text x="191.2" y="1095.2" font-size="33.8px" font-family="CMUBright-Roman" style="text-anchor:end;fill:rgb(115,115,115);" transform="rotate(17.8,191.2,1095.2)">40%</text>
<line x1='241.0' y1='1012.8' x2='227.0' y2='1007.4' style="stroke-width:2.0;stroke:rgb(115,115,115);stroke-linecap:round;fill:none;"/>
<line x1='241.0' y1='1012.8' x2='334.2' y2='1048.9' style="stroke-width:1.0;stroke:rgb(255,255,255);stroke-linecap:round;fill:none;"/>
<line x1='271.7' y1='939.8' x2='258.1' y2='933.6' style="stroke-width:2.0;stroke:rgb(115,115,115);stroke-linecap:round;fill:none;"/>
<line x1='271.7' y1='939.8' x2='362.7' y2='981.3' style="stroke-width:2.0;stroke:rgb(255,255,255);stroke-linecap:round;fill:none;"/>
<text x="247.6" y="944.7" font-size="33.8px" font-family="CMUBright-Roman" style="text-anchor:end;fill:rgb(115,115,115);" transform="rotate(24.5,247.6,944.7)">50%</text>
<line x1='306.7' y1='868.7' x2='293.4' y2='861.7' style="stroke-width:2.0;stroke:rgb(115,115,115);stroke-linecap:round;fill:none;"/>
<line x1='306.7' y1='868.7' x2='395.1' y2='915.5' style="stroke-width:1.0;stroke:rgb(255,255,255);stroke-linecap:round;fill:none;"/>
<line x1='345.8' y1='799.8' x2='332.9' y2='792.1' style="stroke-width:2.0;stroke:rgb(115,115,115);stroke-linecap:round;fill:none;"/>
<line x1='345.8' y1='799.8' x2='431.3' y2='851.7' style="stroke-width:2.0;stroke:rgb(255,255,255);stroke-linecap:round;fill:none;"/>
<text x="321.2" y="801.9" font-size="33.8px" font-family="CMUBright-Roman" style="text-anchor:end;fill:rgb(115,115,115);" transform="rotate(31.2,321.2,801.9)">60%</text>
<line x1='388.8' y1='733.4' x2='376.5' y2='724.8' style="stroke-width:2.0;stroke:rgb(115,115,115);stroke-linecap:round;fill:none;"/>
<line x1='388.8' y1='733.4' x2='471.1' y2='790.1' style="stroke-width:1.0;stroke:rgb(255,255,255);stroke-linecap:round;fill:none;"/>
<line x1='435.7' y1='669.5' x2='423.9' y2='660.3' style="stroke-width:2.0;stroke:rgb(115,115,115);stroke-linecap:round;fill:none;"/>
<line x1='435.7' y1='669.5' x2='514.5' y2='731.0' style="stroke-width:2.0;stroke:rgb(255,255,255);stroke-linecap:round;fill:none;"/>
<text x="411.1" y="668.7" font-size="33.8px" font-family="CMUBright-Roman" style="text-anchor:end;fill:rgb(115,115,115);" transform="rotate(38.0,411.1,668.7)">70%</text>
<line x1='486.2' y1='608.5' x2='475.0' y2='598.6' style="stroke-width:2.0;stroke:rgb(115,115,115);stroke-linecap:round;fill:none;"/>
<line x1='486.2' y1='608.5' x2='561.3' y2='674.5' style="stroke-width:1.0;stroke:rgb(255,255,255);stroke-linecap:round;fill:none;"/>
<line x1='540.3' y1='550.6' x2='529.6' y2='540.0' style="stroke-width:2.0;stroke:rgb(115,115,115);stroke-linecap:round;fill:none;"/>
<line x1='540.3' y1='550.6' x2='611.3' y2='620.9' style="stroke-width:2.0;stroke:rgb(255,255,255);stroke-linecap:round;fill:none;"/>
<text x="515.9" y="546.9" font-size="33.8px" font-family="CMUBright-Roman" style="text-anchor:end;fill:rgb(115,115,115);" transform="rotate(44.7,515.9,546.9)">80%</text>
<line x1='597.6' y1='495.9' x2='587.6' y2='484.8' style="stroke-width:2.0;stroke:rgb(115,115,115);stroke-linecap:round;fill:none;"/>
<line x1='597.6' y1='495.9' x2='664.4' y2='570.3' style="stroke-width:1.0;stroke:rgb(255,255,255);stroke-linecap:round;fill:none;"/>
<line x1='658.0' y1='444.7' x2='648.7' y2='433.0' style="stroke-width:2.0;stroke:rgb(115,115,115);stroke-linecap:round;fill:none;"/>
<line x1='658.0' y1='444.7' x2='720.4' y2='522.9' style="stroke-width:2.0;stroke:rgb(255,255,255);stroke-linecap:round;fill:none;"/>
<text x="634.3" y="438.2" font-size="33.8px" font-family="CMUBright-Roman" style="text-anchor:end;fill:rgb(115,115,115);" transform="rotate(51.4,634.3,438.2)">90%</text>
<line x1='721.4' y1='397.2' x2='712.7' y2='384.9' style="stroke-width:2.0;stroke:rgb(115,115,115);stroke-linecap:round;fill:none;"/>
<line x1='721.4' y1='397.2' x2='779.0' y2='478.9' style="stroke-width:1.0;stroke:rgb(255,255,255);stroke-linecap:round;fill:none;"/>
<line x1='787.4' y1='353.4' x2='779.5' y2='340.7' style="stroke-width:2.0;stroke:rgb(115,115,115);stroke-linecap:round;fill:none;"/>
<line x1='787.4' y1='353.4' x2='840.2' y2='438.3' style="stroke-width:2.0;stroke:rgb(255,255,255);stroke-linecap:round;fill:none;"/>
<text x="764.6" y="344.1" font-size="33.8px" font-family="CMUBright-Roman" style="text-anchor:end;fill:rgb(115,115,115);" transform="rotate(58.1,764.6,344.1)">100%</text>
<path d="M265.754,1697.828 A1250.000,1250.000 40.000 0,1 840.170,438.339 L787.384,353.406 A1350.000,1350.000 0.000 0,0 167.014,1713.655 Z" style="stroke-width:2.0;stroke:rgb(115,115,115);stroke-linecap:round;fill:none;"/>
<path d="M868.583,421.199 A1250.000,1250.000 40.000 0,1 1466.821,250.440 L1464.166,150.476 A1350.000,1350.000 0.000 0,0 818.070,334.894 Z" style="stroke-width:2.0;stroke:rgb(115,115,115);stroke-linecap:round;fill:rgb(99,99,99);"/>
<text x="1153.1" y="284.5" font-size="93.6px" font-family="CMUBright-Bold" style="text-anchor:middle;fill:rgb(255,255,255);" transform="rotate(-15.9,1153.1,284.5)">G2</text>
<line x1='818.1' y1='334.9' x2='810.5' y2='321.9' style="stroke-width:2.0;stroke:rgb(115,115,115);stroke-linecap:round;fill:none;"/>
<line x1='818.1' y1='334.9' x2='868.6' y2='421.2' style="stroke-width:2.0;stroke:rgb(255,255,255);stroke-linecap:round;fill:none;"/>
<text x="795.5" y="325.0" font-size="33.8px" font-family="CMUBright-Roman" style="text-anchor:end;fill:rgb(115,115,115);" transform="rotate(59.7,795.5,325.0)">0%</text>
<line x1='847.6' y1='318.1' x2='840.3' y2='305.0' style="stroke-width:2.0;stroke:rgb(115,115,115);stroke-linecap:round;fill:none;"/>
<line x1='847.6' y1='318.1' x2='895.9' y2='405.7' style="stroke-width:1.0;stroke:rgb(255,255,255);stroke-linecap:round;fill:none;"/>
<line x1='877.5' y1='302.1' x2='870.6' y2='288.8' style="stroke-width:2.0;stroke:rgb(115,115,115);stroke-linecap:round;fill:none;"/>
<line x1='877.5' y1='302.1' x2='923.6' y2='390.8' style="stroke-width:2.0;stroke:rgb(255,255,255);stroke-linecap:round;fill:none;"/>
<text x="855.5" y="291.1" font-size="33.8px" font-family="CMUBright-Roman" style="text-anchor:end;fill:rgb(115,115,115);" transform="rotate(62.5,855.5,291.1)">10%</text>
<line x1='907.8' y1='286.8' x2='901.3' y2='273.3' style="stroke-width:2.0;stroke:rgb(115,115,115);stroke-linecap:round;fill:none;"/>
<line x1='907.8' y1='286.8' x2='951.7' y2='376.7' style="stroke-width:1.0;stroke:rgb(255,255,255);stroke-linecap:round;fill:none;"/>
<line x1='938.5' y1='272.3' x2='932.3' y2='258.7' style="stroke-width:2.0;stroke:rgb(115,115,115);stroke-linecap:round;fill:none;"/>
<line x1='938.5' y1='272.3' x2='980.1' y2='363.2' style="stroke-width:2.0;stroke:rgb(255,255,255);stroke-linecap:round;fill:none;"/>
<text x="917.1" y="260.2" font-size="33.8px" font-family="CMUBright-Roman" style="text-anchor:end;fill:rgb(115,115,115);" transform="rotate(65.4,917.1,260.2)">20%</text>
<line x1='969.6' y1='258.6' x2='963.7' y2='244.8' style="stroke-width:2.0;stroke:rgb(115,115,115);stroke-linecap:round;fill:none;"/>
<line x1='969.6' y1='258.6' x2='1008.9' y2='350.5' style="stroke-width:1.0;stroke:rgb(255,255,255);stroke-linecap:round;fill:none;"/>
<line x1='1001.0' y1='245.6' x2='995.4' y2='231.7' style="stroke-width:2.0;stroke:rgb(115,115,115);stroke-linecap:round;fill:none;"/>
<line x1='1001.0' y1='245.6' x2='1037.9' y2='338.5' style="stroke-width:2.0;stroke:rgb(255,255,255);stroke-linecap:round;fill:none;"/>
<text x="980.1" y="232.5" font-size="33.8px" font-family="CMUBright-Roman" style="text-anchor:end;fill:rgb(115,115,115);" transform="rotate(68.3,980.1,232.5)">30%</text>
<line x1='1032.7' y1='233.5' x2='1027.5' y2='219.4' style="stroke-width:2.0;stroke:rgb(115,115,115);stroke-linecap:round;fill:none;"/>
<line x1='1032.7' y1='233.5' x2='1067.3' y2='327.3' style="stroke-width:1.0;stroke:rgb(255,255,255);stroke-linecap:round;fill:none;"/>
<line x1='1064.7' y1='222.1' x2='1059.8' y2='207.9' style="stroke-width:2.0;stroke:rgb(115,115,115);stroke-linecap:round;fill:none;"/>
<line x1='1064.7' y1='222.1' x2='1096.9' y2='316.8' style="stroke-width:2.0;stroke:rgb(255,255,255);stroke-linecap:round;fill:none;"/>
<text x="1044.5" y="207.9" font-size="33.8px" font-family="CMUBright-Roman" style="text-anchor:end;fill:rgb(115,115,115);" transform="rotate(71.2,1044.5,207.9)">40%</text>
<line x1='1096.9' y1='211.6' x2='1092.5' y2='197.3' style="stroke-width:2.0;stroke:rgb(115,115,115);stroke-linecap:round;fill:none;"/>
<line x1='1096.9' y1='211.6' x2='1126.8' y2='307.0' style="stroke-width:1.0;stroke:rgb(255,255,255);stroke-linecap:round;fill:none;"/>
<line x1='1129.5' y1='201.8' x2='1125.3' y2='187.4' style="stroke-width:2.0;stroke:rgb(115,115,115);stroke-linecap:round;fill:none;"/>
<line x1='1129.5' y1='201.8' x2='1156.9' y2='298.0' style="stroke-width:2.0;stroke:rgb(255,255,255);stroke-linecap:round;fill:none;"/>
<text x="1110.0" y="186.7" font-size="33.8px" font-family="CMUBright-Roman" style="text-anchor:end;fill:rgb(115,115,115);" transform="rotate(74.1,1110.0,186.7)">50%</text>
<line x1='1162.2' y1='192.9' x2='1158.5' y2='178.4' style="stroke-width:2.0;stroke:rgb(115,115,115);stroke-linecap:round;fill:none;"/>
<line x1='1162.2' y1='192.9' x2='1187.2' y2='289.8' style="stroke-width:1.0;stroke:rgb(255,255,255);stroke-linecap:round;fill:none;"/>
<line x1='1195.2' y1='184.9' x2='1191.8' y2='170.2' style="stroke-width:2.0;stroke:rgb(115,115,115);stroke-linecap:round;fill:none;"/>
<line x1='1195.2' y1='184.9' x2='1217.8' y2='282.3' style="stroke-width:2.0;stroke:rgb(255,255,255);stroke-linecap:round;fill:none;"/>
<text x="1176.6" y="168.7" font-size="33.8px" font-family="CMUBright-Roman" style="text-anchor:end;fill:rgb(115,115,115);" transform="rotate(77.0,1176.6,168.7)">60%</text>
<line x1='1228.4' y1='177.6' x2='1225.3' y2='162.9' style="stroke-width:2.0;stroke:rgb(115,115,115);stroke-linecap:round;fill:none;"/>
<line x1='1228.4' y1='177.6' x2='1248.5' y2='275.6' style="stroke-width:1.0;stroke:rgb(255,255,255);stroke-linecap:round;fill:none;"/>
<line x1='1261.7' y1='171.2' x2='1259.1' y2='156.4' style="stroke-width:2.0;stroke:rgb(115,115,115);stroke-linecap:round;fill:none;"/>
<line x1='1261.7' y1='171.2' x2='1279.4' y2='269.6' style="stroke-width:2.0;stroke:rgb(255,255,255);stroke-linecap:round;fill:none;"/>
<text x="1243.9" y="154.1" font-size="33.8px" font-family="CMUBright-Roman" style="text-anchor:end;fill:rgb(115,115,115);" transform="rotate(79.8,1243.9,154.1)">70%</text>
<line x1='1295.2' y1='165.6' x2='1292.9' y2='150.8' style="stroke-width:2.0;stroke:rgb(115,115,115);stroke-linecap:round;fill:none;"/>
<line x1='1295.2' y1='165.6' x2='1310.4' y2='264.5' style="stroke-width:1.0;stroke:rgb(255,255,255);stroke-linecap:round;fill:none;"/>
<line x1='1328.8' y1='160.9' x2='1326.9' y2='146.0' style="stroke-width:2.0;stroke:rgb(115,115,115);stroke-linecap:round;fill:none;"/>
<line x1='1328.8' y1='160.9' x2='1341.5' y2='260.1' style="stroke-width:2.0;stroke:rgb(255,255,255);stroke-linecap:round;fill:none;"/>
<text x="1311.9" y="143.0" font-size="33.8px" font-family="CMUBright-Roman" style="text-anchor:end;fill:rgb(115,115,115);" transform="rotate(82.7,1311.9,143.0)">80%</text>
<line x1='1362.5' y1='157.0' x2='1361.0' y2='142.1' style="stroke-width:2.0;stroke:rgb(115,115,115);stroke-linecap:round;fill:none;"/>
<line x1='1362.5' y1='157.0' x2='1372.7' y2='256.5' style="stroke-width:1.0;stroke:rgb(255,255,255);stroke-linecap:round;fill:none;"/>
<line x1='1396.4' y1='154.0' x2='1395.2' y2='139.0' style="stroke-width:2.0;stroke:rgb(115,115,115);stroke-linecap:round;fill:none;"/>
<line x1='1396.4' y1='154.0' x2='1404.0' y2='253.7' style="stroke-width:2.0;stroke:rgb(255,255,255);stroke-linecap:round;fill:none;"/>
<text x="1380.4" y="135.2" font-size="33.8px" font-family="CMUBright-Roman" style="text-anchor:end;fill:rgb(115,115,115);" transform="rotate(85.6,1380.4,135.2)">90%</text>
<line x1='1430.2' y1='151.8' x2='1429.5' y2='136.8' style="stroke-width:2.0;stroke:rgb(115,115,115);stroke-linecap:round;fill:none;"/>
<line x1='1430.2' y1='151.8' x2='1435.4' y2='251.7' style="stroke-width:1.0;stroke:rgb(255,255,255);stroke-linecap:round;fill:none;"/>
<line x1='1464.2' y1='150.5' x2='1463.8' y2='135.5' style="stroke-width:2.0;stroke:rgb(115,115,115);stroke-linecap:round;fill:none;"/>
<line x1='1464.2' y1='150.5' x2='1466.8' y2='250.4' style="stroke-width:2.0;stroke:rgb(255,255,255);stroke-linecap:round;fill:none;"/>
<text x="1449.1" y="130.9" font-size="33.8px" font-family="CMUBright-Roman" style="text-anchor:end;fill:rgb(115,115,115);" transform="rotate(88.5,1449.1,130.9)">100%</text>
<path d="M868.583,421.199 A1250.000,1250.000 40.000 0,1 1466.821,250.440 L1464.166,150.476 A1350.000,1350.000 0.000 0,0 818.070,334.894 Z" style="stroke-width:2.0;stroke:rgb(115,115,115);stroke-linecap:round;fill:none;"/>
</g>
<g id="track_0">
<path d="M 1589.5,315.9 L 1589.1,328.9 1590.0,341.0 1592.1,352.5 1595.3,363.2 1599.5,373.3 1604.7,382.8 1610.9,391.7 1617.8,400.0 1625.6,407.8 1634.1,415.1 1643.2,421.9 1653.0,428.2 1663.2,434.1 1674.0,439.6 1685.2,444.6 1696.7,449.2 1708.5,453.4 1720.6,457.1 1732.9,460.4 1745.3,463.3 1757.8,465.7 1770.2,467.6 1782.7,469.0 1795.1,469.9 1807.3,470.3 1819.4,470.1 1831.2,469.3 1842.8,467.8 1854.0,465.7 1864.8,462.9 1875.2,459.2 1885.1,454.8 1894.5,449.5 1903.3,443.3 1911.5,436.1 1919.1,427.8 1925.9,418.4 1932.1,407.8 1937.4,396.0  " style="stroke-opacity: 1.000000; stroke-width: 3.0; stroke: rgb(251,106,74); fill: none" />
<path d="M 1589.5,315.9 L 1589.4,332.6 1591.7,348.6 1596.1,364.0 1602.5,378.8 1610.9,393.1 1621.1,406.9 1632.9,420.3 1646.3,433.2 1661.1,445.9 1677.1,458.2 1694.4,470.1 1712.7,481.8 1731.9,493.2 1752.0,504.3 1772.8,515.0 1794.3,525.5 1816.2,535.7 1838.5,545.5 1861.2,555.0 1884.1,564.0 1907.1,572.7 1930.1,580.8 1953.0,588.4 1975.8,595.5 1998.4,601.9 2020.6,607.5 2042.4,612.4 2063.7,616.5 2084.5,619.6 2104.6,621.6 2124.0,622.5 2142.7,622.2 2160.5,620.6 2177.3,617.5 2193.2,612.8 2208.1,606.5 2221.8,598.3 2234.4,588.1 2245.8,575.9  " style="stroke-opacity: 1.000000; stroke-width: 3.0; stroke: rgb(251,106,74); fill: none" />
<path d="M 1589.5,315.9 L 1589.5,335.3 1592.2,354.1 1597.5,372.3 1605.3,390.0 1615.4,407.2 1627.5,424.1 1641.7,440.5 1657.6,456.7 1675.2,472.6 1694.3,488.2 1714.8,503.6 1736.5,518.8 1759.3,533.8 1783.0,548.6 1807.6,563.2 1832.9,577.5 1858.8,591.6 1885.2,605.4 1911.9,618.9 1938.8,632.0 1965.9,644.7 1993.1,656.9 2020.1,668.6 2047.0,679.6 2073.7,690.0 2100.0,699.5 2125.9,708.2 2151.2,715.9 2176.0,722.5 2200.1,727.9 2223.4,731.9 2246.0,734.5 2267.7,735.4 2288.4,734.6 2308.2,731.9 2326.9,727.1 2344.5,720.0 2361.0,710.6 2376.2,698.5  " style="stroke-opacity: 1.000000; stroke-width: 3.0; stroke: rgb(251,106,74); fill: none" />
<path d="M 1589.5,315.9 L 1589.3,342.5 1592.6,368.5 1599.1,393.9 1608.7,418.7 1621.1,443.2 1636.0,467.4 1653.3,491.3 1672.8,515.1 1694.3,538.7 1717.5,562.2 1742.4,585.6 1768.7,609.0 1796.2,632.3 1824.9,655.5 1854.4,678.7 1884.8,701.8 1915.9,724.7 1947.5,747.5 1979.4,770.0 2011.7,792.3 2044.2,814.2 2076.7,835.6 2109.2,856.4 2141.5,876.6 2173.7,896.0 2205.6,914.5 2237.2,932.0 2268.4,948.2 2299.1,963.1 2329.4,976.5 2359.0,988.2 2388.2,998.0 2416.7,1005.6 2444.6,1011.0 2471.9,1013.9 2498.6,1014.0 2524.6,1011.0 2550.0,1004.9 2574.9,995.2  " style="stroke-opacity: 1.000000; stroke-width: 3.0; stroke: rgb(251,106,74); fill: none" />
<path d="M 979.1,432.8 L 984.5,443.4 989.9,453.0 995.2,461.7 1000.5,469.4 1005.8,476.4 1011.0,482.6 1016.2,488.0 1021.4,492.7 1026.5,496.7 1031.5,500.1 1036.5,502.9 1041.5,505.1 1046.3,506.8 1051.1,507.9 1055.7,508.5 1060.3,508.6 1064.7,508.3 1068.9,507.5 1073.1,506.2 1077.0,504.5 1080.7,502.4 1084.3,499.9 1087.6,496.9 1090.6,493.6 1093.4,489.8 1095.9,485.6 1098.0,480.9 1099.9,475.8 1101.3,470.3 1102.3,464.3 1103.0,457.8 1103.1,450.8 1102.8,443.3 1102.0,435.3 1100.6,426.7 1098.6,417.5 1096.1,407.6 1092.8,397.1 1088.9,385.9  " style="stroke-opacity: 1.000000; stroke-width: 3.0; stroke: rgb(107,174,214); fill: none" />
<path d="M 979.1,432.8 L 985.1,443.9 991.6,453.8 998.6,462.5 1006.0,470.1 1013.8,476.6 1022.1,482.2 1030.7,486.9 1039.6,490.7 1048.8,493.7 1058.3,495.9 1068.0,497.4 1078.0,498.2 1088.0,498.4 1098.2,498.0 1108.5,497.1 1118.8,495.5 1129.2,493.5 1139.4,491.0 1149.6,488.0 1159.7,484.6 1169.6,480.7 1179.3,476.4 1188.7,471.7 1197.8,466.6 1206.5,461.1 1214.8,455.2 1222.7,448.9 1230.1,442.2 1236.8,435.1 1243.0,427.5 1248.5,419.5 1253.2,411.1 1257.2,402.1 1260.3,392.7 1262.5,382.7 1263.8,372.1 1264.0,361.0 1263.1,349.2 1261.1,336.8  " style="stroke-opacity: 1.000000; stroke-width: 3.0; stroke: rgb(107,174,214); fill: none" />
<path d="M 979.1,432.8 L 988.4,455.7 994.3,479.2 997.1,503.3 997.0,528.1 994.2,553.5 989.0,579.4 981.6,606.0 972.1,633.2 960.8,660.9 947.9,689.2 933.4,717.9 917.6,747.1 900.7,776.7 882.7,806.5 863.8,836.6 844.1,866.9 823.7,897.3 802.8,927.7 781.4,958.0 759.7,988.1 737.6,1017.9 715.3,1047.3 692.9,1076.2 670.3,1104.4 647.7,1131.8 625.0,1158.3 602.3,1183.7 579.5,1207.8 556.8,1230.6 534.0,1251.8 511.3,1271.2 488.4,1288.7 465.5,1304.1 442.5,1317.2 419.2,1327.8 395.8,1335.7 372.0,1340.6 347.9,1342.4 323.2,1340.8  " style="stroke-opacity: 1.000000; stroke-width: 3.0; stroke: rgb(107,174,214); fill: none" />
<path d="M 979.1,432.8 L 984.5,445.6 988.1,458.3 990.0,470.9 990.4,483.4 989.3,495.8 986.8,508.2 983.0,520.5 978.1,532.7 972.0,544.8 964.9,556.8 956.9,568.8 948.1,580.6 938.4,592.3 928.1,603.8 917.1,615.2 905.6,626.4 893.5,637.3 881.0,648.0 868.2,658.4 855.1,668.4 841.7,678.1 828.1,687.3 814.4,696.0 800.5,704.2 786.7,711.7 772.8,718.7 758.9,724.9 745.2,730.3 731.6,734.9 718.1,738.5 704.8,741.2 691.7,742.7 678.9,743.1 666.3,742.2 654.1,740.0 642.1,736.4 630.5,731.2 619.2,724.4 608.3,715.8  " style="stroke-opacity: 1.000000; stroke-width: 3.0; stroke: rgb(107,174,214); fill: none" />
<path d="M 979.1,432.8 L 986.9,446.3 996.0,458.2 1006.6,468.5 1018.4,477.3 1031.4,484.8 1045.6,491.0 1060.8,496.1 1076.9,500.1 1094.0,503.1 1111.9,505.2 1130.5,506.4 1149.8,506.9 1169.6,506.6 1189.9,505.7 1210.7,504.1 1231.7,502.0 1253.0,499.3 1274.4,496.2 1295.8,492.5 1317.3,488.4 1338.5,483.9 1359.6,478.9 1380.4,473.5 1400.7,467.7 1420.5,461.5 1439.8,454.9 1458.3,447.8 1476.0,440.2 1492.9,432.2 1508.7,423.6 1523.5,414.5 1537.0,404.8 1549.3,394.5 1560.1,383.5 1569.4,371.7 1577.2,359.1 1583.1,345.7 1587.3,331.3 1589.5,315.9  " style="stroke-opacity: 1.000000; stroke-width: 3.0; stroke: rgb(107,174,214); fill: none" />
<path d="M 979.1,432.8 L 989.7,451.1 1002.5,467.2 1017.5,481.4 1034.5,493.9 1053.3,504.8 1074.0,514.2 1096.2,522.3 1120.0,529.2 1145.2,535.0 1171.7,539.8 1199.3,543.7 1227.9,546.8 1257.5,549.2 1287.9,550.9 1318.9,552.1 1350.5,552.7 1382.5,552.8 1414.8,552.4 1447.3,551.6 1479.8,550.3 1512.2,548.7 1544.4,546.5 1576.3,544.0 1607.8,541.0 1638.6,537.4 1668.8,533.4 1698.1,528.7 1726.4,523.4 1753.7,517.4 1779.7,510.6 1804.3,502.9 1827.5,494.2 1849.1,484.4 1868.9,473.4 1886.9,461.2 1902.9,447.4 1916.7,432.1 1928.3,415.0 1937.4,396.0  " style="stroke-opacity: 1.000000; stroke-width: 3.0; stroke: rgb(107,174,214); fill: none" />
<path d="M 979.1,432.8 L 993.4,457.9 1010.5,480.4 1030.1,500.8 1052.3,519.1 1076.7,535.6 1103.2,550.6 1131.7,564.0 1162.1,576.2 1194.1,587.3 1227.6,597.4 1262.6,606.6 1298.7,615.1 1336.0,622.8 1374.2,630.0 1413.1,636.7 1452.8,642.9 1492.9,648.7 1533.5,654.1 1574.3,659.1 1615.2,663.8 1656.0,668.0 1696.8,671.8 1737.2,675.1 1777.2,677.8 1816.7,680.0 1855.6,681.5 1893.6,682.2 1930.7,682.1 1966.8,680.9 2001.8,678.5 2035.5,674.9 2067.8,669.8 2098.6,663.0 2127.8,654.4 2155.3,643.7 2180.9,630.8 2204.6,615.3 2226.3,597.1 2245.8,575.9  " style="stroke-opacity: 1.000000; stroke-width: 3.0; stroke: rgb(107,174,214); fill: none" />
</g>
<g id="plot0">
<g id="plot0-axis">
</g>
<line x1='2376.2' y1='698.5' x2='2523.8' y2='563.5' style="stroke-width:3.0;stroke:rgb(0,0,0);stroke-linecap:round;fill:none;"/>
<line x1='2523.8' y1='563.5' x2='2538.6' y2='550.0' style="stroke-width:3.0;stroke:rgb(0,0,0);stroke-linecap:round;fill:none;"/>
<line x1='2538.6' y1='550.0' x2='2546.0' y2='543.3' style="stroke-width:3.0;stroke:rgb(0,0,0);stroke-linecap:round;fill:none;"/>
<text x="2572.1" y="542.4" font-size="46.8px" font-family="CMUBright-Bold" style="text-anchor:start;fill:rgb(0,0,0);" transform="rotate(317.6,2572.1,542.4)">D</text>
<line x1='979.1' y1='432.8' x2='891.4' y2='253.1' style="stroke-width:3.0;stroke:rgb(0,0,0);stroke-linecap:round;fill:none;"/>
<line x1='891.4' y1='253.1' x2='882.6' y2='235.1' style="stroke-width:3.0;stroke:rgb(0,0,0);stroke-linecap:round;fill:none;"/>
<line x1='882.6' y1='235.1' x2='878.2' y2='226.1' style="stroke-width:3.0;stroke:rgb(0,0,0);stroke-linecap:round;fill:none;"/>
<text x="854.2" y="215.7" font-size="46.8px" font-family="CMUBright-Bold" style="text-anchor:end;fill:rgb(0,0,0);" transform="rotate(64.0,854.2,215.7)">H</text>
<line x1='1589.5' y1='315.9' x2='1604.6' y2='116.4' style="stroke-width:3.0;stroke:rgb(0,0,0);stroke-linecap:round;fill:none;"/>
<line x1='1604.6' y1='116.4' x2='1606.1' y2='96.5' style="stroke-width:3.0;stroke:rgb(0,0,0);stroke-linecap:round;fill:none;"/>
<line x1='1606.1' y1='96.5' x2='1606.8' y2='86.5' style="stroke-width:3.0;stroke:rgb(0,0,0);stroke-linecap:round;fill:none;"/>
<text x="1625.3" y="68.0" font-size="46.8px" font-family="CMUBright-Bold" style="text-anchor:start;fill:rgb(0,0,0);" transform="rotate(274.3,1625.3,68.0)">A</text>
<line x1='608.3' y1='715.8' x2='458.1' y2='583.7' style="stroke-width:3.0;stroke:rgb(0,0,0);stroke-linecap:round;fill:none;"/>
<line x1='458.1' y1='583.7' x2='443.0' y2='570.5' style="stroke-width:3.0;stroke:rgb(0,0,0);stroke-linecap:round;fill:none;"/>
<line x1='443.0' y1='570.5' x2='435.5' y2='563.9' style="stroke-width:3.0;stroke:rgb(0,0,0);stroke-linecap:round;fill:none;"/>
<text x="408.4" y="564.7" font-size="46.8px" font-family="CMUBright-Bold" style="text-anchor:end;fill:rgb(0,0,0);" transform="rotate(41.3,408.4,564.7)">G</text>
<line x1='1937.4' y1='396.0' x2='2011.1' y2='210.1' style="stroke-width:3.0;stroke:rgb(0,0,0);stroke-linecap:round;fill:none;"/>
<line x1='2011.1' y1='210.1' x2='2018.5' y2='191.5' style="stroke-width:3.0;stroke:rgb(0,0,0);stroke-linecap:round;fill:none;"/>
<line x1='2018.5' y1='191.5' x2='2022.1' y2='182.2' style="stroke-width:3.0;stroke:rgb(0,0,0);stroke-linecap:round;fill:none;"/>
<text x="2045.3" y="169.9" font-size="46.8px" font-family="CMUBright-Bold" style="text-anchor:start;fill:rgb(0,0,0);" transform="rotate(291.6,2045.3,169.9)">B</text>
<line x1='2245.8' y1='575.9' x2='2371.4' y2='420.3' style="stroke-width:3.0;stroke:rgb(0,0,0);stroke-linecap:round;fill:none;"/>
<line x1='2371.4' y1='420.3' x2='2384.0' y2='404.7' style="stroke-width:3.0;stroke:rgb(0,0,0);stroke-linecap:round;fill:none;"/>
<line x1='2384.0' y1='404.7' x2='2390.3' y2='396.9' style="stroke-width:3.0;stroke:rgb(0,0,0);stroke-linecap:round;fill:none;"/>
<text x="2417.1" y="393.1" font-size="46.8px" font-family="CMUBright-Bold" style="text-anchor:start;fill:rgb(0,0,0);" transform="rotate(308.9,2417.1,393.1)">C</text>
<line x1='2574.9' y1='995.2' x2='2755.9' y2='910.2' style="stroke-width:3.0;stroke:rgb(0,0,0);stroke-linecap:round;fill:none;"/>
<line x1='2755.9' y1='910.2' x2='2774.0' y2='901.7' style="stroke-width:3.0;stroke:rgb(0,0,0);stroke-linecap:round;fill:none;"/>
<line x1='2774.0' y1='901.7' x2='2783.0' y2='897.4' style="stroke-width:3.0;stroke:rgb(0,0,0);stroke-linecap:round;fill:none;"/>
<text x="2808.3" y="904.4" font-size="46.8px" font-family="CMUBright-Bold" style="text-anchor:start;fill:rgb(0,0,0);" transform="rotate(334.8,2808.3,904.4)">E</text>
<line x1='323.2' y1='1340.8' x2='125.0' y2='1314.0' style="stroke-width:3.0;stroke:rgb(0,0,0);stroke-linecap:round;fill:none;"/>
<line x1='125.0' y1='1314.0' x2='105.2' y2='1311.3' style="stroke-width:3.0;stroke:rgb(0,0,0);stroke-linecap:round;fill:none;"/>
<line x1='105.2' y1='1311.3' x2='95.3' y2='1309.9' style="stroke-width:3.0;stroke:rgb(0,0,0);stroke-linecap:round;fill:none;"/>
<text x="73.3" y="1324.1" font-size="46.8px" font-family="CMUBright-Bold" style="text-anchor:end;fill:rgb(0,0,0);" transform="rotate(7.7,73.3,1324.1)">F</text>
<line x1='1261.1' y1='336.8' x2='1220.8' y2='140.9' style="stroke-width:3.0;stroke:rgb(0,0,0);stroke-linecap:round;fill:none;"/>
<line x1='1220.8' y1='140.9' x2='1216.8' y2='121.3' style="stroke-width:3.0;stroke:rgb(0,0,0);stroke-linecap:round;fill:none;"/>
<line x1='1216.8' y1='121.3' x2='1214.8' y2='111.5' style="stroke-width:3.0;stroke:rgb(0,0,0);stroke-linecap:round;fill:none;"/>
<text x="1193.6" y="95.5" font-size="46.8px" font-family="CMUBright-Bold" style="text-anchor:end;fill:rgb(0,0,0);" transform="rotate(78.4,1193.6,95.5)">J</text>
<line x1='1088.9' y1='385.9' x2='1019.7' y2='198.3' style="stroke-width:3.0;stroke:rgb(0,0,0);stroke-linecap:round;fill:none;"/>
<line x1='1019.7' y1='198.3' x2='1012.8' y2='179.5' style="stroke-width:3.0;stroke:rgb(0,0,0);stroke-linecap:round;fill:none;"/>
<line x1='1012.8' y1='179.5' x2='1009.3' y2='170.1' style="stroke-width:3.0;stroke:rgb(0,0,0);stroke-linecap:round;fill:none;"/>
<text x="986.5" y="157.4" font-size="46.8px" font-family="CMUBright-Bold" style="text-anchor:end;fill:rgb(0,0,0);" transform="rotate(69.7,986.5,157.4)">I</text>
</g>
<g id="plot1">
<g id="plot1-axis">
</g>
<circle cx='1589.5' cy='315.9' r='18.0' style="stroke-width:2.0;stroke:rgb(0,0,0);fill:rgb(49,130,189);"/>
<circle cx='1937.4' cy='396.0' r='18.0' style="stroke-width:2.0;stroke:rgb(0,0,0);fill:rgb(49,130,189);"/>
<circle cx='2245.8' cy='575.9' r='18.0' style="stroke-width:2.0;stroke:rgb(0,0,0);fill:rgb(49,130,189);"/>
<circle cx='2376.2' cy='698.5' r='18.0' style="stroke-width:2.0;stroke:rgb(0,0,0);fill:rgb(49,130,189);"/>
<circle cx='2574.9' cy='995.2' r='18.0' style="stroke-width:2.0;stroke:rgb(0,0,0);fill:rgb(49,130,189);"/>
<circle cx='979.1' cy='432.8' r='18.0' style="stroke-width:2.0;stroke:rgb(0,0,0);fill:rgb(222,45,38);"/>
<circle cx='1088.9' cy='385.9' r='18.0' style="stroke-width:2.0;stroke:rgb(0,0,0);fill:rgb(222,45,38);"/>
<circle cx='1261.1' cy='336.8' r='18.0' style="stroke-width:2.0;stroke:rgb(0,0,0);fill:rgb(222,45,38);"/>
<circle cx='323.2' cy='1340.8' r='18.0' style="stroke-width:2.0;stroke:rgb(0,0,0);fill:rgb(49,130,189);"/>
<circle cx='608.3' cy='715.8' r='18.0' style="stroke-width:2.0;stroke:rgb(0,0,0);fill:rgb(49,130,189);"/>
</g>
</svg>
